<svg width="16" height="16" viewBox="0 0 16 16" fill="none" xmlns="http://www.w3.org/2000/svg">
<g clip-path="url(#clip0_11167_19869)">
<path d="M11.334 0H4.66732C3.78359 0.00105857 2.93636 0.352588 2.31146 0.97748C1.68657 1.60237 1.33504 2.4496 1.33398 3.33333V13.3333C1.33398 14.0406 1.61494 14.7189 2.11503 15.219C2.61513 15.719 3.29341 16 4.00065 16H11.334C12.2177 15.9989 13.0649 15.6474 13.6898 15.0225C14.3147 14.3976 14.6663 13.5504 14.6673 12.6667V3.33333C14.6663 2.4496 14.3147 1.60237 13.6898 0.97748C13.0649 0.352588 12.2177 0.00105857 11.334 0V0ZM13.334 3.33333V10.6667H5.33398V1.33333H11.334C11.8644 1.33333 12.3731 1.54405 12.7482 1.91912C13.1233 2.29419 13.334 2.8029 13.334 3.33333ZM4.00065 1.448V10.6667C3.5324 10.6663 3.07239 10.7898 2.66732 11.0247V3.33333C2.66738 2.91979 2.79562 2.51644 3.03441 2.1788C3.27319 1.84116 3.61076 1.58585 4.00065 1.448ZM11.334 14.6667H4.00065C3.64703 14.6667 3.30789 14.5262 3.05784 14.2761C2.80779 14.0261 2.66732 13.687 2.66732 13.3333C2.66732 12.9797 2.80779 12.6406 3.05784 12.3905C3.30789 12.1405 3.64703 12 4.00065 12H13.334V12.6667C13.334 13.1971 13.1233 13.7058 12.7482 14.0809C12.3731 14.456 11.8644 14.6667 11.334 14.6667Z" fill="#838894"/>
</g>
<defs>
<clipPath id="clip0_11167_19869">
<rect width="16" height="16" fill="white"/>
</clipPath>
</defs>
</svg>
