<svg width="16" height="16" viewBox="0 0 16 16" fill="none" xmlns="http://www.w3.org/2000/svg">
<g clip-path="url(#clip0_11167_19878)">
<path d="M14.705 3.48633L9.78901 1.14433C8.70689 0.497951 7.36001 0.486482 6.26701 1.11433L1.2957 3.48633C1.27704 3.49567 1.2577 3.50567 1.2397 3.51633C0.0599504 4.19089 -0.349612 5.69411 0.32495 6.87386C0.553607 7.27379 0.88995 7.60148 1.2957 7.81967L2.66704 8.47301V11.7397C2.66786 13.2004 3.61833 14.4909 5.01304 14.925C5.98364 15.2058 6.99004 15.3433 8.00039 15.333C9.01058 15.3443 10.017 15.208 10.9877 14.9284C12.3825 14.4943 13.3329 13.2037 13.3337 11.743V8.47167L14.6671 7.83433V13.333C14.6671 13.7012 14.9655 13.9996 15.3337 13.9996C15.7019 13.9996 16.0004 13.7012 16.0004 13.333V5.33298C16.0048 4.55014 15.3867 3.82695 14.705 3.48633ZM12.0004 11.743C12.0007 12.6167 11.4338 13.3896 10.6004 13.6517C9.75517 13.8932 8.87933 14.0104 8.00036 13.9997C7.12139 14.0104 6.24554 13.8932 5.40036 13.6517C4.56689 13.3895 4.00001 12.6167 4.00036 11.743V9.10836L6.2117 10.1617C6.75733 10.4857 7.38048 10.656 8.01504 10.6544C8.61904 10.6586 9.21289 10.4987 9.73304 10.1917L12.0004 9.10833V11.743ZM14.1337 6.61633L9.1057 9.01632C8.40464 9.42454 7.53567 9.41298 6.8457 8.98633L1.92636 6.64633C1.37801 6.35064 1.1732 5.66642 1.46889 5.11811C1.56889 4.93267 1.71883 4.77895 1.9017 4.67433L6.89836 2.28767C7.59964 1.88036 8.46814 1.89189 9.15836 2.31767L14.0744 4.65967C14.4359 4.86042 14.6621 5.23951 14.667 5.65301C14.6677 6.0447 14.466 6.40895 14.1337 6.61633Z" fill="#838894"/>
</g>
<defs>
<clipPath id="clip0_11167_19878">
<rect width="16" height="16" fill="white"/>
</clipPath>
</defs>
</svg>
