<svg width="16" height="16" viewBox="0 0 16 16" fill="none" xmlns="http://www.w3.org/2000/svg">
<g clip-path="url(#clip0_11167_19872)">
<path d="M13.4241 16C13.1775 15.9993 12.9334 15.9498 12.7061 15.8542C12.4787 15.7587 12.2725 15.619 12.0994 15.4433L7.99943 11.3673L3.89943 15.446C3.63612 15.7132 3.29842 15.8948 2.93038 15.9672C2.56233 16.0396 2.181 15.9995 1.8361 15.852C1.48778 15.7119 1.1898 15.47 0.98107 15.1579C0.772345 14.8459 0.662576 14.4781 0.666098 14.1027V3.33333C0.666098 2.44928 1.01729 1.60143 1.64241 0.976311C2.26753 0.351189 3.11538 0 3.99943 0L11.9994 0C12.4372 0 12.8706 0.0862192 13.275 0.253735C13.6795 0.421251 14.0469 0.666782 14.3565 0.976311C14.666 1.28584 14.9115 1.6533 15.079 2.05772C15.2465 2.46214 15.3328 2.89559 15.3328 3.33333V14.1027C15.3365 14.4778 15.2271 14.8453 15.0189 15.1574C14.8107 15.4694 14.5133 15.7115 14.1654 15.852C13.9306 15.9502 13.6786 16.0005 13.4241 16ZM3.99943 1.33333C3.469 1.33333 2.96029 1.54405 2.58522 1.91912C2.21014 2.29419 1.99943 2.8029 1.99943 3.33333V14.1027C1.99919 14.2138 2.03188 14.3224 2.09336 14.4149C2.15485 14.5075 2.24238 14.5797 2.34489 14.6225C2.4474 14.6653 2.5603 14.6768 2.66933 14.6554C2.77835 14.6341 2.8786 14.5809 2.95743 14.5027L7.53276 9.95533C7.65767 9.83117 7.82664 9.76147 8.00276 9.76147C8.17889 9.76147 8.34786 9.83117 8.47276 9.95533L13.0428 14.5013C13.1216 14.5796 13.2218 14.6328 13.3309 14.6541C13.4399 14.6754 13.5528 14.664 13.6553 14.6212C13.7578 14.5784 13.8453 14.5061 13.9068 14.4136C13.9683 14.3211 14.001 14.2124 14.0008 14.1013V3.33333C14.0008 2.8029 13.7901 2.29419 13.415 1.91912C13.0399 1.54405 12.5312 1.33333 12.0008 1.33333H3.99943Z" fill="#838894"/>
</g>
<defs>
<clipPath id="clip0_11167_19872">
<rect width="16" height="16" fill="white"/>
</clipPath>
</defs>
</svg>
