<svg width="16" height="16" viewBox="0 0 16 16" fill="none" xmlns="http://www.w3.org/2000/svg">
<g clip-path="url(#clip0_11167_19884)">
<path d="M8.00006 10.6663C7.29281 10.6663 6.61454 10.3854 6.11444 9.88528C5.61434 9.38518 5.33339 8.7069 5.33339 7.99966C5.33339 7.29241 5.61434 6.61414 6.11444 6.11404C6.61454 5.61394 7.29281 5.33299 8.00006 5.33299C8.7073 5.33299 9.38558 5.61394 9.88568 6.11404C10.3858 6.61414 10.6667 7.29241 10.6667 7.99966C10.6667 8.7069 10.3858 9.38518 9.88568 9.88528C9.38558 10.3854 8.7073 10.6663 8.00006 10.6663ZM8.00006 6.66632C7.64644 6.66632 7.3073 6.8068 7.05725 7.05685C6.8072 7.3069 6.66673 7.64604 6.66673 7.99966C6.66673 8.35328 6.8072 8.69242 7.05725 8.94247C7.3073 9.19252 7.64644 9.33299 8.00006 9.33299C8.35368 9.33299 8.69282 9.19252 8.94287 8.94247C9.19292 8.69242 9.33339 8.35328 9.33339 7.99966C9.33339 7.64604 9.19292 7.3069 8.94287 7.05685C8.69282 6.8068 8.35368 6.66632 8.00006 6.66632ZM8.00006 15.9997C7.27283 15.9989 6.56575 15.7607 5.98633 15.3212C5.40691 14.8818 4.98686 14.2651 4.79006 13.565C4.08651 13.7204 3.35173 13.647 2.69277 13.3556C2.0338 13.0643 1.48509 12.5701 1.12655 11.9452C0.768018 11.3202 0.6184 10.5971 0.699493 9.88118C0.780587 9.16525 1.08816 8.49392 1.57739 7.96499C-0.689275 5.62432 1.58339 1.56499 4.80006 2.39899C5.00755 1.71176 5.43076 1.10959 6.00708 0.681576C6.58339 0.253566 7.28219 0.0224609 8.00006 0.0224609C8.71793 0.0224609 9.41672 0.253566 9.99304 0.681576C10.5694 1.10959 10.9926 1.71176 11.2001 2.39899C14.4667 1.58832 16.6667 5.60766 14.4194 7.99366C16.6914 10.3523 14.4267 14.2883 11.2101 13.565C11.0133 14.2651 10.5932 14.8818 10.0138 15.3212C9.43437 15.7607 8.72728 15.9989 8.00006 15.9997ZM5.33339 11.9997C5.5102 11.9997 5.67977 12.0699 5.8048 12.1949C5.92982 12.3199 6.00006 12.4895 6.00006 12.6663C6.00006 13.1968 6.21077 13.7055 6.58584 14.0805C6.96092 14.4556 7.46963 14.6663 8.00006 14.6663C8.53049 14.6663 9.0392 14.4556 9.41427 14.0805C9.78935 13.7055 10.0001 13.1968 10.0001 12.6663C10 12.5489 10.031 12.4335 10.0898 12.3319C10.1487 12.2303 10.2334 12.146 10.3353 12.0876C10.4372 12.0292 10.5527 11.9988 10.6701 11.9994C10.7876 12 10.9028 12.0316 11.0041 12.091C13.3147 13.2077 15.2707 9.96966 13.0147 8.58499C12.9106 8.52677 12.8239 8.44183 12.7636 8.33894C12.7032 8.23606 12.6714 8.11894 12.6714 7.99966C12.6714 7.88038 12.7032 7.76326 12.7636 7.66037C12.8239 7.55748 12.9106 7.47255 13.0147 7.41432C15.2234 6.07499 13.3627 2.60166 11.0021 3.91166C10.9006 3.97073 10.7853 4.00194 10.6678 4.00214C10.5504 4.00233 10.435 3.97151 10.3333 3.91278C10.2316 3.85405 10.1473 3.76951 10.0887 3.66769C10.0302 3.56588 9.99962 3.45042 10.0001 3.33299C10.0001 2.80256 9.78935 2.29385 9.41427 1.91878C9.0392 1.5437 8.53049 1.33299 8.00006 1.33299C7.46963 1.33299 6.96092 1.5437 6.58584 1.91878C6.21077 2.29385 6.00006 2.80256 6.00006 3.33299C6.00029 3.45013 5.96965 3.56526 5.91124 3.66679C5.85282 3.76832 5.76868 3.85266 5.6673 3.91133C5.56591 3.97 5.45086 4.00092 5.33372 4.00097C5.21659 4.00103 5.1015 3.97023 5.00006 3.91166C2.66673 2.60499 0.758725 6.05299 2.98539 7.37966C3.08948 7.43798 3.17614 7.52298 3.23646 7.62592C3.29678 7.72886 3.32857 7.84601 3.32857 7.96532C3.32857 8.08463 3.29678 8.20179 3.23646 8.30473C3.17614 8.40767 3.08948 8.49267 2.98539 8.55099C0.753392 9.95966 2.64273 13.1997 4.99606 12.091C5.09838 12.0311 5.21483 11.9996 5.33339 11.9997Z" fill="#838894"/>
</g>
<defs>
<clipPath id="clip0_11167_19884">
<rect width="16" height="16" fill="white"/>
</clipPath>
</defs>
</svg>
