<svg width="32" height="32" viewBox="0 0 32 32" fill="none" xmlns="http://www.w3.org/2000/svg">
<g clip-path="url(#clip0_111486_1010)">
<path fill-rule="evenodd" clip-rule="evenodd" d="M16 32C24.8366 32 32 24.8365 32 16C32 7.16344 24.8366 0 16 0C7.16344 0 0 7.16344 0 16C0 24.8365 7.16344 32 16 32ZM18.6074 9.83905C19.2066 10.2804 19.5457 10.8996 19.6247 11.6967H23.7235C23.7037 10.4912 23.3811 9.43062 22.7556 8.51497C22.13 7.5993 21.2543 6.88456 20.1284 6.37074C19.0091 5.85691 17.6988 5.6 16.1975 5.6C14.7226 5.6 13.4058 5.85691 12.2469 6.37074C11.0881 6.88456 10.1761 7.5993 9.51111 8.51497C8.85267 9.43062 8.52675 10.5011 8.53333 11.7264C8.52675 13.2217 9.01728 14.4108 10.0049 15.2935C10.9926 16.1762 12.3391 16.8251 14.0444 17.2401L16.2469 17.7934C16.9844 17.9713 17.6066 18.1689 18.1136 18.3863C18.6272 18.6037 19.0156 18.8672 19.279 19.1768C19.549 19.4864 19.684 19.8685 19.684 20.323C19.684 20.8105 19.5358 21.242 19.2395 21.6175C18.9432 21.993 18.5251 22.2861 17.9852 22.4969C17.4519 22.7077 16.823 22.8131 16.0988 22.8131C15.3613 22.8131 14.6996 22.7011 14.1136 22.4771C13.5342 22.2466 13.07 21.9073 12.721 21.4594C12.3786 21.0048 12.1844 20.4383 12.1383 19.7598H8C8.03292 21.2156 8.38518 22.4376 9.05679 23.4257C9.73498 24.4073 10.6765 25.1484 11.8815 25.649C13.093 26.1497 14.5152 26.4 16.1481 26.4C17.7942 26.4 19.2 26.153 20.3654 25.6589C21.5374 25.1583 22.4329 24.4567 23.0519 23.5542C23.6774 22.6451 23.9934 21.5714 24 20.3329C23.9934 19.4897 23.8387 18.742 23.5358 18.0899C23.2395 17.4377 22.8214 16.8712 22.2815 16.3903C21.7416 15.9094 21.1029 15.5043 20.3654 15.1749C19.628 14.8455 18.8181 14.582 17.9358 14.3844L16.1185 13.9496C15.6774 13.8508 15.2626 13.7323 14.8741 13.5939C14.4856 13.449 14.1432 13.281 13.8469 13.09C13.5506 12.8924 13.3169 12.6585 13.1457 12.3884C12.9811 12.1183 12.9053 11.8021 12.9185 11.4398C12.9185 11.005 13.0436 10.6164 13.2938 10.2738C13.5506 9.93127 13.9193 9.66448 14.4 9.47344C14.8807 9.27582 15.47 9.17701 16.1679 9.17701C17.1951 9.17701 18.0082 9.39769 18.6074 9.83905Z" fill="#000000"/>
</g>
<defs>
<clipPath id="clip0_111486_1010">
<rect width="32" height="32" fill="white"/>
</clipPath>
</defs>
</svg>
