<svg width="24" height="25" viewBox="0 0 24 25" fill="none" xmlns="http://www.w3.org/2000/svg">
<path fill-rule="evenodd" clip-rule="evenodd" d="M5.10039 2.8999C3.60922 2.8999 2.40039 4.10873 2.40039 5.5999V19.3999C2.40039 20.8911 3.60922 22.0999 5.10039 22.0999H18.9004C20.3916 22.0999 21.6004 20.8911 21.6004 19.3999V5.5999C21.6004 4.10873 20.3916 2.8999 18.9004 2.8999H5.10039ZM9.93679 10.4363C10.2883 10.0848 10.2883 9.51498 9.93679 9.16351C9.58532 8.81203 9.01547 8.81203 8.66399 9.16351L5.96399 11.8635C5.61252 12.215 5.61252 12.7848 5.96399 13.1363L8.66399 15.8363C9.01547 16.1878 9.58532 16.1878 9.93679 15.8363C10.2883 15.4848 10.2883 14.915 9.93679 14.5635L7.87318 12.4999L9.93679 10.4363ZM15.3368 9.16351C14.9853 8.81203 14.4155 8.81203 14.064 9.16351C13.7125 9.51498 13.7125 10.0848 14.064 10.4363L16.1276 12.4999L14.064 14.5635C13.7125 14.915 13.7125 15.4848 14.064 15.8363C14.4155 16.1878 14.9853 16.1878 15.3368 15.8363L18.0368 13.1363C18.3883 12.7848 18.3883 12.215 18.0368 11.8635L15.3368 9.16351Z" fill="#E7C009"/>
</svg>
