<svg width="21" height="16" viewBox="0 0 21 16" fill="none" xmlns="http://www.w3.org/2000/svg">
<path d="M20.3544 1.53673e-06V4.60228C20.3544 5.90909 20.0987 7.24432 19.5874 8.60796C19.076 9.97159 18.4013 11.2571 17.5632 12.4645C16.7251 13.6719 15.8161 14.6804 14.8359 15.4901L10.8303 13.125C11.6257 11.875 12.2791 10.5682 12.7905 9.20455C13.2876 7.84091 13.5362 6.32102 13.5362 4.64489L13.5362 9.40664e-07L20.3544 1.53673e-06ZM9.59446 5.96065e-07V4.60227C9.59446 5.90909 9.33878 7.24432 8.82742 8.60796C8.31605 9.97159 7.64134 11.2571 6.80327 12.4645C5.9652 13.6719 5.05611 14.6804 4.07599 15.4901L0.0703125 13.125C0.865768 11.875 1.51918 10.5682 2.03054 9.20455C2.5277 7.84091 2.77628 6.32102 2.77628 4.64489L2.77628 0L9.59446 5.96065e-07Z" fill="#424854"/>
</svg>
