<svg width="21" height="16" viewBox="0 0 21 16" fill="none" xmlns="http://www.w3.org/2000/svg">
<path d="M0.644531 15.9998V11.3975C0.644531 10.0907 0.900213 8.7555 1.41158 7.39187C1.92294 6.02823 2.59766 4.74272 3.43572 3.53533C4.27379 2.32795 5.18288 1.31942 6.163 0.509766L10.1687 2.87482C9.37322 4.12482 8.71982 5.43164 8.20845 6.79528C7.71129 8.15891 7.46271 9.6788 7.46271 11.3549V15.9998H0.644531ZM11.4045 15.9998V11.3975C11.4045 10.0907 11.6602 8.7555 12.1715 7.39187C12.6829 6.02823 13.3576 4.74272 14.1957 3.53533C15.0337 2.32795 15.9428 1.31942 16.9229 0.509766L20.9286 2.87482C20.1332 4.12482 19.4798 5.43164 18.9684 6.79528C18.4712 8.15891 18.2227 9.6788 18.2227 11.3549V15.9998H11.4045Z" fill="#424854"/>
</svg>
