<svg width="21" height="20" viewBox="0 0 21 20" fill="none" xmlns="http://www.w3.org/2000/svg">
<g clip-path="url(#clip0_120193_2895)">
<path d="M19.1111 3.3975C18.8767 3.1162 18.5832 2.88996 18.2515 2.73485C17.9199 2.57973 17.5581 2.49955 17.1919 2.5H3.71859L3.68359 2.2075C3.61197 1.59951 3.31975 1.03894 2.86234 0.632065C2.40492 0.225186 1.81412 0.000284828 1.20193 0L1.01693 0C0.795913 0 0.583952 0.0877974 0.427671 0.244078C0.271391 0.400358 0.183594 0.61232 0.183594 0.833333C0.183594 1.05435 0.271391 1.26631 0.427671 1.42259C0.583952 1.57887 0.795913 1.66667 1.01693 1.66667H1.20193C1.40604 1.66669 1.60304 1.74163 1.75557 1.87726C1.9081 2.0129 2.00555 2.19979 2.02943 2.4025L3.17609 12.1525C3.29514 13.1665 3.78233 14.1015 4.54518 14.78C5.30804 15.4585 6.29347 15.8334 7.31443 15.8333H16.0169C16.2379 15.8333 16.4499 15.7455 16.6062 15.5893C16.7625 15.433 16.8503 15.221 16.8503 15C16.8503 14.779 16.7625 14.567 16.6062 14.4107C16.4499 14.2545 16.2379 14.1667 16.0169 14.1667H7.31443C6.79864 14.1652 6.29593 14.0043 5.87521 13.7059C5.45449 13.4075 5.13635 12.9863 4.96443 12.5H14.8978C15.8747 12.5001 16.8205 12.1569 17.5701 11.5304C18.3197 10.9039 18.8253 10.0339 18.9986 9.0725L19.6528 5.44417C19.7181 5.08417 19.7034 4.71422 19.6098 4.36053C19.5162 4.00684 19.3459 3.67806 19.1111 3.3975ZM18.0169 5.14833L17.3619 8.77667C17.2579 9.35417 16.954 9.87666 16.5035 10.2527C16.053 10.6287 15.4846 10.8342 14.8978 10.8333H4.69943L3.91526 4.16667H17.1919C17.3143 4.16594 17.4354 4.19218 17.5465 4.24355C17.6577 4.29491 17.7561 4.37012 17.8349 4.46384C17.9136 4.55756 17.9708 4.66748 18.0022 4.78578C18.0337 4.90409 18.0387 5.02787 18.0169 5.14833Z" fill="#999DAA"/>
<path d="M6.01627 20.0003C6.93675 20.0003 7.68294 19.2541 7.68294 18.3337C7.68294 17.4132 6.93675 16.667 6.01627 16.667C5.0958 16.667 4.34961 17.4132 4.34961 18.3337C4.34961 19.2541 5.0958 20.0003 6.01627 20.0003Z" fill="#999DAA"/>
<path d="M14.3503 20.0003C15.2707 20.0003 16.0169 19.2541 16.0169 18.3337C16.0169 17.4132 15.2707 16.667 14.3503 16.667C13.4298 16.667 12.6836 17.4132 12.6836 18.3337C12.6836 19.2541 13.4298 20.0003 14.3503 20.0003Z" fill="#999DAA"/>
</g>
<defs>
<clipPath id="clip0_120193_2895">
<rect width="20" height="20" fill="white" transform="translate(0.183594)"/>
</clipPath>
</defs>
</svg>
