<svg width="431" height="429" viewBox="0 0 431 429" fill="none" xmlns="http://www.w3.org/2000/svg">
<g filter="url(#filter0_d_11167_18475)">
<rect width="341" height="340" transform="translate(88.7539) rotate(15)" fill="white"/>
<mask id="path-1-inside-1_11167_18475" fill="white">
<path d="M88.7539 0L418.135 88.2573L403.641 142.349L74.26 54.0918L88.7539 0Z"/>
</mask>
<path d="M88.7539 0L418.135 88.2573L403.641 142.349L74.26 54.0918L88.7539 0Z" fill="#B4DAEC"/>
<path d="M418.264 87.7743L415.842 87.1254L415.583 88.0913L418.005 88.7403L418.264 87.7743ZM410.998 85.8275L406.154 84.5296L405.896 85.4955L410.739 86.7934L410.998 85.8275ZM401.311 83.2317L396.467 81.9338L396.208 82.8997L401.052 84.1976L401.311 83.2317ZM391.623 80.6359L386.779 79.338L386.52 80.3039L391.364 81.6018L391.623 80.6359ZM381.935 78.0401L377.091 76.7422L376.833 77.7081L381.676 79.006L381.935 78.0401ZM372.248 75.4443L367.404 74.1464L367.145 75.1123L371.989 76.4102L372.248 75.4443ZM362.56 72.8485L357.716 71.5506L357.457 72.5165L362.301 73.8144L362.56 72.8485ZM352.872 70.2527L348.028 68.9548L347.77 69.9207L352.613 71.2186L352.872 70.2527ZM343.185 67.6569L338.341 66.359L338.082 67.3249L342.926 68.6228L343.185 67.6569ZM333.497 65.0611L328.653 63.7632L328.394 64.7291L333.238 66.027L333.497 65.0611ZM323.809 62.4652L318.965 61.1673L318.707 62.1333L323.55 63.4312L323.809 62.4652ZM314.122 59.8694L309.278 58.5715L309.019 59.5375L313.863 60.8354L314.122 59.8694ZM304.434 57.2736L299.59 55.9757L299.331 56.9417L304.175 58.2396L304.434 57.2736ZM294.746 54.6778L289.902 53.3799L289.644 54.3459L294.487 55.6438L294.746 54.6778ZM285.059 52.082L280.215 50.7841L279.956 51.7501L284.8 53.048L285.059 52.082ZM275.371 49.4862L270.527 48.1883L270.268 49.1542L275.112 50.4522L275.371 49.4862ZM265.683 46.8904L260.839 45.5925L260.581 46.5584L265.424 47.8563L265.683 46.8904ZM255.996 44.2946L251.152 42.9967L250.893 43.9626L255.737 45.2605L255.996 44.2946ZM246.308 41.6988L241.464 40.4009L241.205 41.3668L246.049 42.6647L246.308 41.6988ZM236.62 39.103L231.776 37.8051L231.518 38.771L236.361 40.0689L236.62 39.103ZM226.933 36.5072L222.089 35.2093L221.83 36.1752L226.674 37.4731L226.933 36.5072ZM217.245 33.9114L212.401 32.6135L212.142 33.5794L216.986 34.8773L217.245 33.9114ZM207.557 31.3156L202.713 30.0177L202.454 30.9836L207.298 32.2815L207.557 31.3156ZM197.869 28.7198L193.026 27.4219L192.767 28.3878L197.611 29.6857L197.869 28.7198ZM188.182 26.124L183.338 24.8261L183.079 25.792L187.923 27.0899L188.182 26.124ZM178.494 23.5282L173.65 22.2303L173.391 23.1962L178.235 24.4941L178.494 23.5282ZM168.806 20.9324L163.963 19.6345L163.704 20.6004L168.548 21.8983L168.806 20.9324ZM159.119 18.3366L154.275 17.0387L154.016 18.0046L158.86 19.3025L159.119 18.3366ZM149.431 15.7408L144.587 14.4429L144.328 15.4088L149.172 16.7067L149.431 15.7408ZM139.743 13.145L134.9 11.8471L134.641 12.813L139.485 14.1109L139.743 13.145ZM130.056 10.5492L125.212 9.25126L124.953 10.2172L129.797 11.5151L130.056 10.5492ZM120.368 7.95336L115.524 6.65545L115.265 7.62138L120.109 8.91928L120.368 7.95336ZM110.68 5.35755L105.837 4.05965L105.578 5.02557L110.422 6.32348L110.68 5.35755ZM100.993 2.76175L96.1489 1.46384L95.8901 2.42977L100.734 3.72767L100.993 2.76175ZM91.3051 0.165941L88.8833 -0.482963L88.6245 0.482963L91.0462 1.13187L91.3051 0.165941ZM418.393 87.2914L415.972 86.6424L415.454 88.5743L417.876 89.2232L418.393 87.2914ZM411.128 85.3445L406.284 84.0466L405.766 85.9785L410.61 87.2764L411.128 85.3445ZM401.44 82.7487L396.596 81.4508L396.079 83.3827L400.922 84.6806L401.44 82.7487ZM391.752 80.1529L386.909 78.855L386.391 80.7869L391.235 82.0848L391.752 80.1529ZM382.065 77.5571L377.221 76.2592L376.703 78.1911L381.547 79.489L382.065 77.5571ZM372.377 74.9613L367.533 73.6634L367.016 75.5953L371.859 76.8932L372.377 74.9613ZM362.689 72.3655L357.846 71.0676L357.328 72.9995L362.172 74.2974L362.689 72.3655ZM353.002 69.7697L348.158 68.4718L347.64 70.4036L352.484 71.7015L353.002 69.7697ZM343.314 67.1739L338.47 65.876L337.953 67.8078L342.796 69.1057L343.314 67.1739ZM333.626 64.5781L328.782 63.2802L328.265 65.212L333.109 66.5099L333.626 64.5781ZM323.939 61.9823L319.095 60.6844L318.577 62.6162L323.421 63.9141L323.939 61.9823ZM314.251 59.3865L309.407 58.0886L308.889 60.0204L313.733 61.3183L314.251 59.3865ZM304.563 56.7907L299.719 55.4928L299.202 57.4246L304.046 58.7225L304.563 56.7907ZM294.876 54.1949L290.032 52.897L289.514 54.8288L294.358 56.1267L294.876 54.1949ZM285.188 51.5991L280.344 50.3012L279.826 52.233L284.67 53.5309L285.188 51.5991ZM275.5 49.0033L270.656 47.7054L270.139 49.6372L274.983 50.9351L275.5 49.0033ZM265.813 46.4075L260.969 45.1096L260.451 47.0414L265.295 48.3393L265.813 46.4075ZM256.125 43.8117L251.281 42.5138L250.763 44.4456L255.607 45.7435L256.125 43.8117ZM246.437 41.2158L241.593 39.9179L241.076 41.8498L245.92 43.1477L246.437 41.2158ZM236.75 38.62L231.906 37.3221L231.388 39.254L236.232 40.5519L236.75 38.62ZM227.062 36.0242L222.218 34.7263L221.7 36.6582L226.544 37.9561L227.062 36.0242ZM217.374 33.4284L212.53 32.1305L212.013 34.0624L216.857 35.3603L217.374 33.4284ZM207.687 30.8326L202.843 29.5347L202.325 31.4666L207.169 32.7645L207.687 30.8326ZM197.999 28.2368L193.155 26.9389L192.637 28.8708L197.481 30.1687L197.999 28.2368ZM188.311 25.641L183.467 24.3431L182.95 26.275L187.794 27.5729L188.311 25.641ZM178.624 23.0452L173.78 21.7473L173.262 23.6792L178.106 24.9771L178.624 23.0452ZM168.936 20.4494L164.092 19.1515L163.574 21.0834L168.418 22.3813L168.936 20.4494ZM159.248 17.8536L154.404 16.5557L153.887 18.4876L158.731 19.7855L159.248 17.8536ZM149.561 15.2578L144.717 13.9599L144.199 15.8918L149.043 17.1897L149.561 15.2578ZM139.873 12.662L135.029 11.3641L134.511 13.2959L139.355 14.5939L139.873 12.662ZM130.185 10.0662L125.341 8.7683L124.824 10.7001L129.668 11.998L130.185 10.0662ZM120.497 7.47039L115.654 6.17249L115.136 8.10434L119.98 9.40225L120.497 7.47039ZM110.81 4.87459L105.966 3.57669L105.448 5.50854L110.292 6.80644L110.81 4.87459ZM101.122 2.27878L96.2783 0.980881L95.7607 2.91273L100.605 4.21063L101.122 2.27878ZM91.4345 -0.317022L89.0127 -0.965926L88.4951 0.965926L90.9168 1.61483L91.4345 -0.317022Z" fill="#C5C7D4" mask="url(#path-1-inside-1_11167_18475)"/>
<path d="M104.245 39.3502L107.257 28.1104L109.293 28.6559L107.909 33.8203L108.046 33.8571L113.815 29.8677L116.301 30.5338L110.603 34.4128L113.328 41.784L110.88 41.1281L108.818 35.411L107.178 36.548L106.281 39.8958L104.245 39.3502ZM117.926 37.7222L116.603 42.6616L114.616 42.1292L116.875 33.6993L118.774 34.2081L118.39 35.6406L118.489 35.667C118.809 35.247 119.219 34.9548 119.718 34.7905C120.22 34.6271 120.786 34.6297 121.416 34.7984C121.997 34.9542 122.471 35.2144 122.836 35.5789C123.205 35.9444 123.445 36.395 123.556 36.9307C123.671 37.4674 123.637 38.0718 123.452 38.7441L122.014 44.1115L120.028 43.5792L121.383 38.5191C121.534 37.9556 121.506 37.4755 121.299 37.0788C121.095 36.683 120.737 36.4165 120.225 36.2792C119.877 36.1861 119.547 36.1801 119.235 36.2612C118.928 36.3396 118.659 36.501 118.429 36.7452C118.203 36.9904 118.035 37.316 117.926 37.7222ZM127.667 45.8026C126.844 45.582 126.179 45.2098 125.672 44.6858C125.165 44.1618 124.833 43.5296 124.674 42.7891C124.52 42.0496 124.559 41.2444 124.792 40.3736C125.026 39.5028 125.395 38.7841 125.899 38.2174C126.408 37.6517 127.012 37.2686 127.713 37.0681C128.414 36.8677 129.176 36.8777 129.999 37.0983C130.822 37.3189 131.487 37.6912 131.994 38.2152C132.501 38.7392 132.831 39.3727 132.985 40.1159C133.142 40.86 133.104 41.6675 132.871 42.5383C132.638 43.4091 132.267 44.1255 131.76 44.6876C131.256 45.2506 130.654 45.6324 129.953 45.8328C129.252 46.0333 128.49 46.0232 127.667 45.8026ZM128.104 44.214C128.551 44.3336 128.957 44.311 129.322 44.1463C129.689 43.9779 130.002 43.7047 130.26 43.3268C130.521 42.9499 130.721 42.5053 130.858 41.9931C130.996 41.4772 131.046 40.9906 131.008 40.5333C130.975 40.0733 130.841 39.6788 130.608 39.3496C130.374 39.0204 130.035 38.796 129.588 38.6764C129.131 38.5538 128.717 38.5763 128.347 38.7437C127.98 38.9121 127.665 39.1866 127.402 39.5672C127.144 39.9451 126.946 40.3919 126.808 40.9078C126.671 41.4201 126.619 41.9043 126.654 42.3607C126.692 42.818 126.828 43.2112 127.061 43.5404C127.299 43.8669 127.647 44.0914 128.104 44.214ZM134.935 47.5736L134.812 38.5055L136.837 39.0481L136.731 45.3724L136.807 45.393L139.91 39.8716L141.914 40.4084L141.849 46.7086L141.931 46.7307L144.97 41.2275L147.001 41.7716L142.355 49.5618L140.286 49.0074L140.232 42.8871L140.116 42.8562L137.009 48.1295L134.935 47.5736ZM150.351 55.0925C150.08 55.0199 149.835 54.9308 149.617 54.8251C149.401 54.7241 149.232 54.628 149.111 54.5369L149.987 53.1127C150.254 53.2743 150.501 53.3837 150.729 53.4408C150.956 53.4979 151.175 53.48 151.384 53.3871C151.596 53.2987 151.805 53.1116 152.011 52.8256L152.303 52.4157L151.552 42.9911L153.66 43.5558L153.897 50.4427L153.984 50.4662L157.639 44.6219L159.752 45.1881L153.844 53.7344C153.567 54.1386 153.256 54.4651 152.911 54.7138C152.565 54.9662 152.181 55.126 151.759 55.1933C151.34 55.2653 150.87 55.2317 150.351 55.0925ZM162.214 55.0595C161.391 54.8389 160.726 54.4666 160.219 53.9426C159.712 53.4186 159.38 52.7864 159.221 52.0459C159.067 51.3064 159.106 50.5012 159.339 49.6305C159.573 48.7597 159.942 48.0409 160.446 47.4742C160.955 46.9085 161.559 46.5254 162.26 46.325C162.961 46.1245 163.723 46.1346 164.546 46.3551C165.369 46.5757 166.034 46.948 166.541 47.472C167.048 47.996 167.378 48.6296 167.532 49.3727C167.689 50.1169 167.651 50.9243 167.418 51.7951C167.185 52.6659 166.814 53.3823 166.307 53.9444C165.803 54.5074 165.201 54.8892 164.5 55.0896C163.799 55.2901 163.037 55.28 162.214 55.0595ZM162.651 53.4708C163.098 53.5904 163.504 53.5678 163.869 53.4031C164.236 53.2347 164.549 52.9615 164.807 52.5836C165.068 52.2067 165.268 51.7622 165.405 51.2499C165.543 50.734 165.593 50.2474 165.555 49.7901C165.522 49.3302 165.388 48.9356 165.155 48.6064C164.921 48.2772 164.581 48.0528 164.135 47.9332C163.678 47.8107 163.264 47.8331 162.894 48.0005C162.527 48.1689 162.212 48.4434 161.949 48.824C161.691 49.2019 161.493 49.6488 161.355 50.1647C161.218 50.6769 161.166 51.1612 161.201 51.6175C161.239 52.0748 161.375 52.468 161.608 52.7972C161.846 53.1237 162.194 53.3483 162.651 53.4708ZM174.306 54.3233L175.615 49.4388L177.602 49.9711L175.343 58.401L173.417 57.8848L173.818 56.3865L173.731 56.363C173.414 56.784 172.998 57.0862 172.482 57.2696C171.97 57.4539 171.397 57.4613 170.764 57.2917C170.212 57.1436 169.756 56.8902 169.397 56.5313C169.043 56.1698 168.81 55.7211 168.699 55.1854C168.589 54.6461 168.624 54.0398 168.804 53.3665L170.242 47.9991L172.229 48.5314L170.873 53.5916C170.73 54.1257 170.763 54.5894 170.971 54.9825C171.179 55.3755 171.522 55.6358 171.997 55.7633C172.29 55.8417 172.593 55.8463 172.905 55.7772C173.218 55.708 173.5 55.5561 173.751 55.3214C174.007 55.0841 174.192 54.7513 174.306 54.3233ZM177.386 58.9484L179.645 50.5185L181.571 51.0347L181.195 52.4397L181.283 52.4632C181.567 52.0177 181.931 51.7133 182.375 51.5499C182.823 51.3838 183.289 51.3654 183.772 51.4948C183.881 51.5242 184.002 51.5626 184.135 51.6098C184.272 51.6544 184.384 51.6981 184.47 51.7409L183.981 53.5684C183.904 53.5166 183.778 53.4552 183.601 53.3843C183.428 53.3106 183.258 53.2512 183.09 53.2061C182.727 53.1091 182.381 53.1005 182.049 53.1804C181.723 53.2576 181.44 53.4113 181.202 53.6416C180.964 53.8719 180.797 54.1663 180.701 54.5249L179.373 59.4808L177.386 58.9484ZM186.5 64.7787L189.606 53.1876L191.56 53.7111L191.186 55.1051L191.302 55.136C191.459 54.9586 191.662 54.7796 191.91 54.5991C192.16 54.4149 192.465 54.2831 192.828 54.2038C193.191 54.1208 193.62 54.1454 194.114 54.2778C194.765 54.4523 195.308 54.7761 195.742 55.2493C196.18 55.7197 196.467 56.32 196.6 57.0499C196.739 57.7772 196.683 58.6092 196.432 59.5458C196.184 60.4715 195.821 61.2175 195.344 61.7837C194.867 62.3499 194.321 62.7331 193.706 62.9332C193.092 63.1332 192.454 63.1446 191.792 62.9671C191.309 62.8377 190.929 62.6499 190.654 62.4036C190.379 62.1573 190.175 61.8948 190.042 61.616C189.913 61.3345 189.823 61.0771 189.772 60.8437L189.69 60.8217L188.487 65.311L186.5 64.7787ZM190.425 57.9246C190.279 58.4697 190.228 58.9678 190.272 59.4188C190.319 59.8707 190.459 60.2512 190.689 60.5601C190.925 60.8663 191.253 61.0758 191.674 61.1886C192.113 61.3062 192.512 61.2877 192.871 61.1329C193.231 60.9745 193.541 60.7105 193.801 60.3409C194.066 59.9687 194.268 59.5191 194.41 58.9922C194.55 58.469 194.599 57.9842 194.558 57.5379C194.517 57.0916 194.379 56.7135 194.144 56.4036C193.91 56.0936 193.571 55.8794 193.128 55.7607C192.704 55.647 192.314 55.662 191.957 55.8058C191.601 55.9496 191.292 56.2021 191.031 56.5634C190.773 56.9257 190.571 57.3794 190.425 57.9246ZM197.007 64.2057L199.265 55.7758L201.192 56.2919L200.815 57.6969L200.903 57.7205C201.187 57.275 201.551 56.9706 201.995 56.8071C202.443 56.641 202.909 56.6227 203.392 56.7521C203.502 56.7815 203.623 56.8198 203.755 56.8671C203.892 56.9116 204.004 56.9553 204.091 56.9981L203.601 58.8257C203.525 58.7739 203.398 58.7125 203.221 58.6415C203.049 58.5679 202.878 58.5085 202.71 58.4634C202.348 58.3663 202.001 58.3578 201.67 58.4376C201.343 58.5148 201.061 58.6686 200.823 58.8989C200.584 59.1292 200.417 59.4236 200.321 59.7822L198.993 64.738L197.007 64.2057ZM206.42 66.9045C205.597 66.6839 204.932 66.3116 204.425 65.7876C203.919 65.2636 203.586 64.6314 203.428 63.8909C203.273 63.1514 203.312 62.3463 203.545 61.4755C203.779 60.6047 204.148 59.8859 204.653 59.3192C205.161 58.7535 205.766 58.3704 206.466 58.17C207.167 57.9695 207.929 57.9796 208.752 58.2002C209.576 58.4207 210.241 58.793 210.747 59.317C211.254 59.841 211.584 60.4746 211.738 61.2177C211.895 61.9619 211.857 62.7693 211.624 63.6401C211.391 64.5109 211.02 65.2274 210.513 65.7894C210.009 66.3524 209.407 66.7342 208.706 66.9347C208.005 67.1351 207.243 67.1251 206.42 66.9045ZM206.857 65.3158C207.304 65.4354 207.71 65.4129 208.076 65.2481C208.442 65.0797 208.755 64.8066 209.013 64.4287C209.275 64.0518 209.474 63.6072 209.611 63.095C209.75 62.5791 209.8 62.0925 209.761 61.6352C209.728 61.1752 209.594 60.7806 209.361 60.4514C209.128 60.1222 208.788 59.8978 208.341 59.7782C207.884 59.6557 207.47 59.6781 207.1 59.8455C206.733 60.0139 206.418 60.2884 206.156 60.669C205.897 61.0469 205.699 61.4938 205.561 62.0097C205.424 62.5219 205.372 63.0062 205.407 63.4625C205.445 63.9198 205.581 64.313 205.814 64.6422C206.052 64.9688 206.4 65.1933 206.857 65.3158ZM214.962 72.5932C214.248 72.402 213.661 72.1408 213.201 71.8096C212.74 71.4821 212.397 71.1157 212.172 70.7104C211.947 70.3051 211.827 69.8905 211.811 69.4667L213.717 69.5125C213.753 69.6987 213.827 69.8929 213.937 70.0951C214.047 70.3009 214.217 70.4917 214.448 70.6674C214.682 70.8477 214.999 70.9913 215.398 71.0982C215.961 71.2492 216.464 71.237 216.907 71.0616C217.35 70.8899 217.654 70.493 217.821 69.871L218.248 68.2739L218.15 68.2474C217.992 68.4249 217.786 68.5951 217.531 68.758C217.279 68.9219 216.972 69.0339 216.611 69.094C216.254 69.1551 215.833 69.1209 215.35 68.9915C214.703 68.8179 214.156 68.5087 213.711 68.0639C213.27 67.6164 212.975 67.0472 212.827 66.3566C212.683 65.6632 212.735 64.8573 212.981 63.939C213.229 63.0133 213.592 62.2733 214.07 61.719C214.552 61.162 215.101 60.7895 215.716 60.6014C216.332 60.4096 216.964 60.4005 217.612 60.574C218.106 60.7064 218.489 60.8993 218.762 61.1529C219.04 61.4039 219.243 61.6719 219.371 61.957C219.499 62.2385 219.585 62.4949 219.629 62.7263L219.739 62.7557L220.112 61.3617L222.072 61.8867L219.776 70.4538C219.583 71.1746 219.251 71.7249 218.781 72.1047C218.31 72.4846 217.746 72.7117 217.087 72.786C216.427 72.8604 215.719 72.7961 214.962 72.5932ZM216.322 67.5813C216.743 67.6941 217.129 67.6877 217.48 67.5622C217.832 67.4367 218.136 67.2025 218.392 66.8595C218.649 66.5165 218.849 66.0761 218.993 65.5382C219.135 65.0077 219.183 64.5225 219.136 64.0825C219.093 63.6435 218.953 63.2745 218.715 62.9756C218.482 62.6739 218.152 62.4658 217.724 62.3511C217.281 62.2324 216.881 62.2487 216.523 62.3998C216.164 62.5509 215.856 62.8076 215.599 63.1698C215.342 63.5284 215.145 63.962 215.009 64.4706C214.871 64.9865 214.825 65.4585 214.871 65.8865C214.921 66.3118 215.066 66.6722 215.304 66.9674C215.548 67.26 215.887 67.4647 216.322 67.5813ZM221.849 70.8622L224.108 62.4323L226.034 62.9484L225.658 64.3534L225.746 64.377C226.03 63.9315 226.393 63.6271 226.837 63.4636C227.286 63.2975 227.751 63.2792 228.234 63.4086C228.344 63.438 228.465 63.4763 228.598 63.5236C228.735 63.5681 228.847 63.6118 228.933 63.6546L228.443 65.4822C228.367 65.4304 228.24 65.369 228.063 65.298C227.891 65.2244 227.721 65.165 227.552 65.1199C227.19 65.0228 226.843 65.0143 226.512 65.0941C226.186 65.1713 225.903 65.3251 225.665 65.5554C225.427 65.7857 225.26 66.0801 225.164 66.4387L223.836 71.3945L221.849 70.8622ZM231.317 73.5757C230.472 73.3492 229.789 72.978 229.269 72.4621C228.753 71.9434 228.417 71.3162 228.261 70.5803C228.106 69.8408 228.147 69.0302 228.383 68.1484C228.616 67.2813 228.984 66.5644 229.489 65.9977C229.999 65.4283 230.6 65.0406 231.295 64.8345C231.99 64.6248 232.74 64.6277 233.545 64.8434C234.065 64.9826 234.533 65.1982 234.949 65.49C235.369 65.7791 235.71 66.1451 235.972 66.5878C236.237 67.0314 236.401 67.5496 236.461 68.1424C236.523 68.7315 236.455 69.3955 236.257 70.1346L236.094 70.7438L229.184 68.8924L229.543 67.5532L234.548 68.8944C234.646 68.5129 234.655 68.1524 234.573 67.8129C234.493 67.4697 234.331 67.1735 234.088 66.924C233.849 66.6756 233.539 66.5004 233.158 66.3985C232.752 66.2896 232.369 66.2928 232.009 66.4081C231.649 66.5196 231.341 66.7115 231.084 66.9838C230.831 67.2533 230.652 67.576 230.548 67.9519L230.235 69.1209C230.103 69.6112 230.08 70.056 230.165 70.4553C230.251 70.8509 230.43 71.1851 230.702 71.458C230.975 71.7272 231.328 71.9197 231.759 72.0354C232.049 72.1128 232.321 72.1427 232.577 72.1249C232.833 72.1035 233.069 72.0353 233.284 71.9204C233.499 71.8055 233.683 71.6409 233.834 71.4266L235.633 72.1322C235.385 72.5911 235.047 72.9594 234.62 73.2371C234.197 73.512 233.704 73.682 233.142 73.747C232.58 73.8083 231.972 73.7512 231.317 73.5757ZM245.115 70.4494L243.251 70.1617C243.249 69.965 243.205 69.769 243.12 69.5737C243.039 69.3794 242.906 69.2044 242.72 69.0487C242.534 68.8931 242.288 68.7741 241.98 68.6917C241.567 68.581 241.195 68.5775 240.865 68.6813C240.539 68.786 240.34 68.9816 240.267 69.268C240.198 69.5121 240.234 69.7356 240.376 69.9382C240.521 70.1419 240.795 70.3505 241.196 70.564L242.552 71.2566C243.303 71.6423 243.823 72.0737 244.111 72.5508C244.402 73.0289 244.469 73.5703 244.311 74.175C244.165 74.7045 243.884 75.1312 243.468 75.455C243.056 75.7761 242.55 75.9775 241.947 76.0593C241.345 76.141 240.693 76.0878 239.99 75.8995C238.958 75.6231 238.186 75.1847 237.672 74.5843C237.159 73.9803 236.947 73.2742 237.034 72.4662L239.021 72.7987C239.007 73.2028 239.116 73.54 239.35 73.8104C239.583 74.0808 239.929 74.2772 240.386 74.3998C240.858 74.5262 241.263 74.5308 241.6 74.4133C241.941 74.2968 242.15 74.0959 242.226 73.8105C242.291 73.569 242.251 73.3446 242.107 73.1373C241.966 72.931 241.713 72.7338 241.348 72.5457L239.991 71.8585C239.227 71.4736 238.705 71.0297 238.424 70.527C238.144 70.0206 238.088 69.4606 238.256 68.8469C238.392 68.3263 238.653 67.914 239.041 67.61C239.433 67.3033 239.913 67.1143 240.481 67.043C241.054 66.969 241.677 67.0222 242.35 67.2026C243.338 67.4673 244.059 67.886 244.513 68.4587C244.971 69.0324 245.172 69.696 245.115 70.4494ZM253.597 72.7221L251.733 72.4344C251.731 72.2377 251.687 72.0418 251.602 71.8465C251.521 71.6521 251.388 71.4772 251.202 71.3215C251.016 71.1659 250.77 71.0469 250.462 70.9645C250.049 70.8537 249.677 70.8502 249.347 70.954C249.021 71.0588 248.822 71.2544 248.749 71.5407C248.68 71.7849 248.716 72.0083 248.858 72.211C249.003 72.4147 249.277 72.6233 249.678 72.8367L251.034 73.5294C251.785 73.9151 252.305 74.3465 252.593 74.8236C252.884 75.3017 252.951 75.8431 252.793 76.4478C252.647 76.9773 252.366 77.404 251.95 77.7277C251.538 78.0488 251.032 78.2503 250.429 78.332C249.827 78.4138 249.175 78.3605 248.472 78.1723C247.44 77.8958 246.668 77.4574 246.154 76.857C245.641 76.253 245.429 75.547 245.516 74.739L247.503 75.0715C247.489 75.4755 247.599 75.8127 247.832 76.0831C248.065 76.3535 248.411 76.55 248.868 76.6725C249.34 76.799 249.745 76.8035 250.082 76.6861C250.423 76.5696 250.632 76.3687 250.708 76.0833C250.773 75.8418 250.733 75.6174 250.589 75.4101C250.448 75.2037 250.195 75.0065 249.83 74.8184L248.473 74.1313C247.709 73.7463 247.187 73.3025 246.906 72.7998C246.626 72.2934 246.57 71.7333 246.738 71.1196C246.874 70.5991 247.135 70.1868 247.523 69.8828C247.915 69.576 248.395 69.387 248.963 69.3157C249.536 69.2417 250.159 69.2949 250.832 69.4753C251.82 69.74 252.541 70.1587 252.995 70.7315C253.453 71.3052 253.654 71.9687 253.597 72.7221Z" fill="#0A5A72"/>
<path d="M82.2549 116.984L105.437 123.195L111.649 100.013L88.4665 93.8016L82.2549 116.984ZM113.285 123.559L117.803 106.699L120.857 107.518L118.944 114.655L126.757 116.748L128.669 109.611L131.732 110.432L127.214 127.291L124.152 126.471L126.071 119.309L118.258 117.215L116.339 124.377L113.285 123.559ZM133.627 113.683L134.313 111.123L147.764 114.727L147.078 117.288L141.867 115.891L138.036 130.191L135.006 129.379L138.838 115.08L133.627 113.683ZM150.357 115.422L154.095 116.424L155.827 129.982L156.024 130.035L164.303 119.159L168.04 120.16L163.523 137.02L160.592 136.235L163.696 124.652L163.539 124.61L155.789 134.895L153.6 134.308L152.037 121.502L151.881 121.46L148.771 133.067L145.84 132.282L150.357 115.422ZM166.849 137.911L171.366 121.052L174.42 121.87L170.589 136.169L178.014 138.159L177.328 140.719L166.849 137.911Z" fill="#161D29"/>
<path d="M77.4999 136.088L79.7994 136.704L81.2167 142.413L81.3265 142.442L85.4084 138.207L87.708 138.823L81.731 144.774L80.6075 148.967L78.5769 148.423L79.7004 144.23L77.4999 136.088ZM88.1138 151.155C87.2906 150.934 86.6256 150.562 86.119 150.038C85.6124 149.514 85.2798 148.882 85.1214 148.141C84.9666 147.402 85.0059 146.597 85.2392 145.726C85.4725 144.855 85.8416 144.136 86.3463 143.57C86.8548 143.004 87.4594 142.621 88.1601 142.42C88.8609 142.22 89.6229 142.23 90.4461 142.451C91.2694 142.671 91.9343 143.043 92.441 143.567C92.9476 144.091 93.2778 144.725 93.4316 145.468C93.5891 146.212 93.5512 147.02 93.3178 147.891C93.0845 148.761 92.7141 149.478 92.2067 150.04C91.7029 150.603 91.1006 150.985 90.3998 151.185C89.6991 151.386 88.9371 151.375 88.1138 151.155ZM88.5513 149.566C88.9976 149.686 89.4037 149.663 89.7694 149.499C90.1361 149.33 90.4485 149.057 90.7066 148.679C90.9684 148.302 91.1679 147.858 91.3051 147.345C91.4434 146.829 91.4934 146.343 91.4551 145.886C91.4215 145.426 91.288 145.031 91.0547 144.702C90.8213 144.373 90.4814 144.148 90.0351 144.029C89.5777 143.906 89.1639 143.929 88.7935 144.096C88.4268 144.264 88.1121 144.539 87.8493 144.919C87.5912 145.297 87.3931 145.744 87.2548 146.26C87.1176 146.772 87.0662 147.257 87.1008 147.713C87.1391 148.17 87.2749 148.563 87.5082 148.893C87.7462 149.219 88.0939 149.444 88.5513 149.566ZM100.206 150.419L101.515 145.534L103.502 146.067L101.243 154.496L99.3169 153.98L99.7183 152.482L99.6305 152.458C99.3138 152.879 98.8975 153.182 98.3817 153.365C97.8696 153.549 97.297 153.557 96.6641 153.387C96.1116 153.239 95.656 152.986 95.2972 152.627C94.9431 152.265 94.7104 151.817 94.5991 151.281C94.4887 150.742 94.5237 150.135 94.7041 149.462L96.1423 144.095L98.129 144.627L96.7732 149.687C96.63 150.221 96.6627 150.685 96.8711 151.078C97.0795 151.471 97.4215 151.731 97.8971 151.859C98.1898 151.937 98.4925 151.942 98.8051 151.873C99.1178 151.803 99.3997 151.652 99.6508 151.417C99.9065 151.18 100.092 150.847 100.206 150.419ZM103.286 155.044L105.545 146.614L107.471 147.13L107.095 148.535L107.183 148.559C107.467 148.113 107.831 147.809 108.274 147.645C108.723 147.479 109.189 147.461 109.672 147.59C109.781 147.62 109.902 147.658 110.035 147.705C110.172 147.75 110.284 147.794 110.37 147.836L109.881 149.664C109.804 149.612 109.678 149.551 109.501 149.48C109.328 149.406 109.158 149.347 108.989 149.302C108.627 149.205 108.281 149.196 107.949 149.276C107.623 149.353 107.34 149.507 107.102 149.737C106.864 149.967 106.697 150.262 106.601 150.62L105.273 155.576L103.286 155.044ZM124.952 152.867L122.899 152.317C122.931 151.965 122.903 151.637 122.815 151.336C122.728 151.03 122.592 150.754 122.407 150.509C122.222 150.263 121.992 150.054 121.716 149.882C121.445 149.708 121.138 149.574 120.794 149.482C120.183 149.319 119.6 149.327 119.046 149.508C118.492 149.685 118.003 150.033 117.578 150.55C117.154 151.064 116.829 151.743 116.603 152.589C116.372 153.448 116.312 154.209 116.421 154.869C116.535 155.527 116.786 156.069 117.174 156.494C117.566 156.917 118.066 157.21 118.674 157.373C119.01 157.463 119.337 157.503 119.653 157.494C119.974 157.482 120.275 157.42 120.556 157.307C120.841 157.195 121.098 157.032 121.328 156.819C121.561 156.607 121.753 156.345 121.903 156.032L123.953 156.593C123.733 157.107 123.432 157.564 123.051 157.963C122.673 158.364 122.231 158.689 121.725 158.937C121.22 159.183 120.666 159.332 120.063 159.386C119.462 159.437 118.826 159.372 118.157 159.193C117.169 158.928 116.348 158.463 115.695 157.798C115.042 157.133 114.608 156.309 114.393 155.326C114.178 154.343 114.232 153.247 114.556 152.04C114.88 150.829 115.383 149.854 116.063 149.115C116.744 148.372 117.534 147.876 118.432 147.626C119.331 147.376 120.27 147.383 121.251 147.646C121.876 147.813 122.434 148.057 122.925 148.377C123.416 148.697 123.826 149.083 124.156 149.536C124.486 149.985 124.721 150.491 124.861 151.054C125.005 151.614 125.035 152.219 124.952 152.867ZM131.056 158.685L132.365 153.8L134.351 154.333L132.092 162.762L130.166 162.246L130.568 160.748L130.48 160.724C130.163 161.146 129.747 161.448 129.231 161.631C128.719 161.815 128.146 161.823 127.513 161.653C126.961 161.505 126.505 161.252 126.147 160.893C125.792 160.531 125.56 160.083 125.448 159.547C125.338 159.008 125.373 158.401 125.553 157.728L126.992 152.361L128.978 152.893L127.622 157.953C127.479 158.487 127.512 158.951 127.72 159.344C127.929 159.737 128.271 159.997 128.746 160.125C129.039 160.203 129.342 160.208 129.654 160.139C129.967 160.069 130.249 159.918 130.5 159.683C130.756 159.446 130.941 159.113 131.056 158.685ZM134.135 163.31L136.394 154.88L138.321 155.396L137.944 156.801L138.032 156.825C138.316 156.379 138.68 156.075 139.124 155.911C139.572 155.745 140.038 155.727 140.521 155.856C140.631 155.886 140.752 155.924 140.884 155.971C141.021 156.016 141.133 156.06 141.22 156.102L140.73 157.93C140.654 157.878 140.527 157.817 140.35 157.746C140.177 157.672 140.007 157.613 139.839 157.568C139.477 157.471 139.13 157.462 138.799 157.542C138.472 157.619 138.19 157.773 137.951 158.003C137.713 158.233 137.546 158.528 137.45 158.886L136.122 163.842L134.135 163.31ZM140.263 164.952L142.522 156.522L144.448 157.038L144.072 158.443L144.16 158.467C144.444 158.021 144.808 157.717 145.251 157.553C145.7 157.387 146.165 157.369 146.648 157.498C146.758 157.528 146.879 157.566 147.012 157.613C147.149 157.658 147.261 157.701 147.347 157.744L146.857 159.572C146.781 159.52 146.654 159.459 146.477 159.388C146.305 159.314 146.135 159.255 145.966 159.21C145.604 159.112 145.257 159.104 144.926 159.184C144.6 159.261 144.317 159.415 144.079 159.645C143.841 159.875 143.674 160.17 143.578 160.528L142.25 165.484L140.263 164.952ZM149.731 167.665C148.886 167.439 148.203 167.068 147.683 166.552C147.167 166.033 146.831 165.406 146.675 164.67C146.52 163.93 146.561 163.12 146.797 162.238C147.03 161.371 147.398 160.654 147.903 160.087C148.413 159.518 149.014 159.13 149.709 158.924C150.404 158.714 151.154 158.717 151.959 158.933C152.479 159.072 152.947 159.288 153.363 159.58C153.783 159.869 154.124 160.235 154.386 160.677C154.652 161.121 154.815 161.639 154.875 162.232C154.937 162.821 154.869 163.485 154.671 164.224L154.508 164.833L147.598 162.982L147.957 161.643L152.962 162.984C153.06 162.603 153.069 162.242 152.987 161.903C152.907 161.559 152.745 161.263 152.502 161.014C152.263 160.765 151.953 160.59 151.572 160.488C151.166 160.379 150.783 160.382 150.423 160.498C150.063 160.609 149.755 160.801 149.498 161.073C149.245 161.343 149.066 161.666 148.962 162.042L148.649 163.211C148.517 163.701 148.494 164.146 148.579 164.545C148.665 164.94 148.845 165.275 149.116 165.548C149.389 165.817 149.742 166.009 150.174 166.125C150.463 166.202 150.735 166.232 150.991 166.215C151.247 166.193 151.483 166.125 151.698 166.01C151.914 165.895 152.097 165.731 152.248 165.516L154.047 166.222C153.799 166.681 153.461 167.049 153.034 167.327C152.611 167.602 152.119 167.772 151.556 167.837C150.995 167.898 150.386 167.841 149.731 167.665ZM158.515 164.548L157.191 169.488L155.205 168.955L157.463 160.525L159.362 161.034L158.979 162.467L159.077 162.493C159.398 162.073 159.807 161.781 160.306 161.617C160.809 161.453 161.375 161.456 162.004 161.625C162.586 161.78 163.059 162.041 163.424 162.405C163.793 162.771 164.033 163.221 164.145 163.757C164.26 164.294 164.225 164.898 164.041 165.57L162.603 170.938L160.616 170.405L161.972 165.345C162.123 164.782 162.095 164.302 161.887 163.905C161.684 163.509 161.326 163.243 160.813 163.105C160.466 163.012 160.136 163.006 159.824 163.087C159.517 163.166 159.248 163.327 159.018 163.571C158.791 163.817 158.624 164.142 158.515 164.548ZM171.091 164.177L170.679 165.714L165.833 164.415L166.245 162.878L171.091 164.177ZM167.982 161.179L169.969 161.712L167.848 169.626C167.777 169.893 167.762 170.108 167.804 170.273C167.851 170.434 167.936 170.559 168.057 170.646C168.179 170.734 168.322 170.8 168.487 170.844C168.611 170.877 168.727 170.898 168.834 170.907C168.945 170.918 169.03 170.923 169.089 170.923L169.008 172.566C168.892 172.574 168.729 172.573 168.52 172.564C168.314 172.556 168.069 172.518 167.786 172.45C167.284 172.331 166.856 172.136 166.501 171.865C166.148 171.59 165.901 171.245 165.761 170.831C165.624 170.418 165.629 169.948 165.773 169.423L167.982 161.179ZM179.325 163.372L176.314 174.612L174.327 174.079L177.339 162.839L179.325 163.372ZM182.045 176.324C181.199 176.097 180.517 175.726 179.996 175.21C179.48 174.691 179.144 174.064 178.988 173.328C178.834 172.589 178.874 171.778 179.111 170.896C179.343 170.029 179.712 169.312 180.216 168.746C180.726 168.176 181.328 167.788 182.022 167.582C182.718 167.373 183.468 167.376 184.273 167.591C184.792 167.731 185.26 167.946 185.676 168.238C186.096 168.527 186.438 168.893 186.699 169.336C186.965 169.779 187.128 170.298 187.189 170.89C187.25 171.479 187.182 172.143 186.984 172.883L186.821 173.492L179.911 171.64L180.27 170.301L185.275 171.642C185.374 171.261 185.382 170.9 185.3 170.561C185.22 170.218 185.058 169.921 184.815 169.672C184.576 169.424 184.266 169.248 183.885 169.146C183.479 169.038 183.096 169.041 182.736 169.156C182.376 169.268 182.068 169.459 181.811 169.732C181.558 170.001 181.38 170.324 181.275 170.7L180.962 171.869C180.83 172.359 180.807 172.804 180.893 173.203C180.979 173.599 181.158 173.933 181.43 174.206C181.703 174.475 182.055 174.668 182.487 174.783C182.776 174.861 183.048 174.891 183.304 174.873C183.561 174.851 183.797 174.783 184.012 174.668C184.227 174.553 184.41 174.389 184.562 174.175L186.361 174.88C186.112 175.339 185.774 175.707 185.347 175.985C184.924 176.26 184.432 176.43 183.869 176.495C183.308 176.556 182.7 176.499 182.045 176.324ZM189.898 178.434C189.364 178.291 188.908 178.067 188.531 177.762C188.159 177.454 187.899 177.078 187.751 176.635C187.607 176.192 187.609 175.695 187.757 175.142C187.884 174.667 188.077 174.297 188.336 174.033C188.595 173.769 188.901 173.584 189.255 173.479C189.609 173.374 189.989 173.325 190.395 173.332C190.805 173.336 191.221 173.371 191.643 173.437C192.151 173.518 192.564 173.579 192.882 173.622C193.201 173.66 193.442 173.654 193.604 173.603C193.771 173.55 193.88 173.428 193.931 173.238L193.94 173.205C194.051 172.792 194.014 172.439 193.83 172.146C193.646 171.854 193.323 171.646 192.862 171.522C192.375 171.392 191.961 171.394 191.619 171.53C191.28 171.667 191.023 171.867 190.846 172.129L189.062 171.369C189.345 170.896 189.702 170.532 190.13 170.279C190.56 170.021 191.041 169.872 191.574 169.83C192.108 169.785 192.669 169.841 193.258 169.999C193.664 170.108 194.056 170.264 194.433 170.467C194.81 170.67 195.135 170.926 195.41 171.234C195.685 171.539 195.873 171.905 195.974 172.333C196.079 172.761 196.056 173.255 195.906 173.814L194.395 179.456L192.485 178.945L192.795 177.787L192.729 177.769C192.546 177.971 192.317 178.145 192.042 178.291C191.773 178.434 191.456 178.524 191.094 178.56C190.736 178.594 190.337 178.551 189.898 178.434ZM190.805 177.112C191.204 177.219 191.571 177.233 191.906 177.154C192.242 177.072 192.523 176.92 192.751 176.698C192.983 176.478 193.14 176.212 193.224 175.901L193.49 174.908C193.414 174.943 193.295 174.962 193.133 174.965C192.975 174.97 192.8 174.964 192.609 174.948C192.417 174.932 192.228 174.913 192.042 174.891C191.856 174.868 191.694 174.848 191.558 174.831C191.25 174.792 190.967 174.787 190.709 174.816C190.45 174.845 190.231 174.923 190.052 175.051C189.873 175.176 189.749 175.367 189.681 175.623C189.583 175.989 189.642 176.301 189.859 176.559C190.077 176.817 190.392 177.001 190.805 177.112ZM199.164 184.311C198.451 184.12 197.864 183.858 197.404 183.527C196.943 183.2 196.6 182.833 196.375 182.428C196.15 182.023 196.03 181.608 196.014 181.184L197.919 181.23C197.956 181.416 198.029 181.611 198.14 181.813C198.249 182.019 198.42 182.209 198.651 182.385C198.885 182.565 199.201 182.709 199.6 182.816C200.164 182.967 200.667 182.955 201.11 182.779C201.552 182.607 201.857 182.211 202.023 181.589L202.451 179.992L202.352 179.965C202.195 180.142 201.989 180.313 201.733 180.476C201.481 180.64 201.175 180.752 200.814 180.812C200.456 180.873 200.036 180.838 199.553 180.709C198.905 180.536 198.359 180.226 197.913 179.781C197.473 179.334 197.178 178.765 197.03 178.074C196.886 177.381 196.937 176.575 197.183 175.657C197.431 174.731 197.794 173.991 198.272 173.437C198.755 172.88 199.304 172.507 199.919 172.319C200.535 172.127 201.167 172.118 201.814 172.292C202.308 172.424 202.692 172.617 202.965 172.871C203.243 173.121 203.446 173.389 203.573 173.675C203.702 173.956 203.788 174.213 203.832 174.444L203.941 174.473L204.315 173.079L206.274 173.604L203.979 182.171C203.786 182.892 203.454 183.442 202.983 183.822C202.513 184.202 201.948 184.429 201.289 184.504C200.63 184.578 199.922 184.514 199.164 184.311ZM200.525 179.299C200.946 179.412 201.332 179.405 201.683 179.28C202.034 179.154 202.338 178.92 202.595 178.577C202.851 178.234 203.052 177.794 203.196 177.256C203.338 176.725 203.386 176.24 203.339 175.8C203.296 175.361 203.155 174.992 202.918 174.693C202.685 174.392 202.355 174.183 201.926 174.069C201.484 173.95 201.083 173.966 200.725 174.117C200.367 174.268 200.059 174.525 199.801 174.887C199.544 175.246 199.348 175.68 199.211 176.188C199.073 176.704 199.027 177.176 199.073 177.604C199.124 178.029 199.269 178.39 199.507 178.685C199.75 178.978 200.09 179.182 200.525 179.299ZM212.375 180.474L213.683 175.59L215.67 176.122L213.411 184.552L211.485 184.036L211.886 182.537L211.799 182.514C211.482 182.935 211.066 183.237 210.55 183.42C210.038 183.605 209.465 183.612 208.832 183.442C208.28 183.294 207.824 183.041 207.465 182.682C207.111 182.321 206.879 181.872 206.767 181.336C206.657 180.797 206.692 180.191 206.872 179.517L208.31 174.15L210.297 174.682L208.941 179.742C208.798 180.277 208.831 180.74 209.039 181.133C209.248 181.526 209.59 181.787 210.065 181.914C210.358 181.993 210.661 181.997 210.973 181.928C211.286 181.859 211.568 181.707 211.819 181.472C212.075 181.235 212.26 180.902 212.375 180.474ZM219.142 186.264C218.297 186.037 217.614 185.666 217.094 185.15C216.578 184.632 216.242 184.004 216.086 183.269C215.931 182.529 215.972 181.718 216.208 180.837C216.441 179.969 216.809 179.253 217.314 178.686C217.823 178.116 218.425 177.729 219.12 177.523C219.815 177.313 220.565 177.316 221.37 177.532C221.89 177.671 222.358 177.886 222.773 178.178C223.194 178.467 223.535 178.833 223.797 179.276C224.062 179.72 224.225 180.238 224.286 180.831C224.348 181.42 224.28 182.084 224.082 182.823L223.919 183.432L217.009 181.581L217.368 180.241L222.373 181.583C222.471 181.201 222.48 180.841 222.398 180.501C222.317 180.158 222.156 179.862 221.913 179.612C221.673 179.364 221.364 179.189 220.983 179.087C220.577 178.978 220.194 178.981 219.833 179.096C219.474 179.208 219.166 179.4 218.909 179.672C218.656 179.942 218.477 180.264 218.373 180.64L218.059 181.809C217.928 182.299 217.905 182.744 217.99 183.143C218.076 183.539 218.255 183.873 218.527 184.146C218.8 184.415 219.153 184.608 219.584 184.724C219.873 184.801 220.146 184.831 220.402 184.813C220.658 184.792 220.894 184.724 221.109 184.609C221.324 184.494 221.508 184.329 221.659 184.115L223.458 184.82C223.21 185.279 222.872 185.648 222.445 185.925C222.022 186.2 221.529 186.37 220.967 186.435C220.405 186.496 219.797 186.439 219.142 186.264Z" fill="#838894"/>
<rect x="68.8086" y="169.1" width="139.5" height="119" rx="3.5" transform="rotate(15 68.8086 169.1)" stroke="#DBDDEA"/>
<path d="M66.9472 205.022L90.1294 211.234L96.3411 188.051L73.1589 181.84L66.9472 205.022Z" fill="#161D29"/>
<path d="M58.286 242.126L58.9368 239.697L69.1193 230.311L71.1444 230.854L70.218 234.311L68.9831 233.981L62.1224 240.321L62.0871 240.453L72.0729 243.129L71.4001 245.64L58.286 242.126ZM65.4908 247.409L66.5275 243.54L66.8516 242.462L70.0413 230.558L72.9226 231.33L68.405 248.19L65.4908 247.409ZM73.1921 249.473L73.7833 247.267L81.174 243.097C81.8852 242.682 82.4863 242.305 82.9771 241.965C83.468 241.626 83.8618 241.276 84.1587 240.914C84.4556 240.553 84.6666 240.139 84.7916 239.672C84.9342 239.14 84.9355 238.652 84.7955 238.209C84.657 237.76 84.4043 237.374 84.0376 237.053C83.6709 236.731 83.2186 236.498 82.6808 236.354C82.1265 236.205 81.6099 236.19 81.131 236.309C80.6536 236.422 80.2438 236.657 79.9015 237.012C79.5647 237.369 79.3192 237.835 79.1647 238.412L76.2587 237.633C76.5455 236.563 77.039 235.698 77.7392 235.039C78.4394 234.379 79.2757 233.947 80.248 233.743C81.2258 233.54 82.2718 233.588 83.3859 233.887C84.5165 234.19 85.4532 234.667 86.1962 235.319C86.9391 235.971 87.448 236.728 87.723 237.59C88.0034 238.453 88.0171 239.357 87.7642 240.301C87.5951 240.932 87.3081 241.52 86.9034 242.065C86.4987 242.609 85.8925 243.17 85.0848 243.748C84.2826 244.327 83.1942 244.997 81.8197 245.758L78.1218 247.935L78.0909 248.05L85.4341 250.018L84.7503 252.57L73.1921 249.473ZM93.7363 255.322C92.3807 254.958 91.3091 254.304 90.5215 253.357C89.7409 252.407 89.2642 251.212 89.0913 249.771C88.9254 248.327 89.0888 246.685 89.5814 244.847C90.0795 243.01 90.7593 241.515 91.6208 240.364C92.4892 239.208 93.4976 238.42 94.6459 237.998C95.7996 237.578 97.0516 237.549 98.4017 237.91C99.7518 238.272 100.821 238.923 101.61 239.864C102.399 240.805 102.878 241.992 103.047 243.426C103.222 244.861 103.063 246.495 102.572 248.328C102.078 250.172 101.395 251.677 100.524 252.843C99.6594 254.006 98.6495 254.8 97.4943 255.226C96.3446 255.653 95.0919 255.685 93.7363 255.322ZM94.4267 252.745C95.4805 253.027 96.4509 252.731 97.338 251.857C98.2321 250.979 98.9505 249.528 99.4931 247.503C99.8519 246.164 100.013 245.001 99.9777 244.015C99.9419 243.029 99.7306 242.237 99.3437 241.639C98.9583 241.036 98.4171 240.641 97.7201 240.454C96.6718 240.173 95.7034 240.473 94.8148 241.352C93.9277 242.226 93.2122 243.667 92.6685 245.674C92.3028 247.017 92.1343 248.184 92.1631 249.174C92.1974 250.165 92.4073 250.963 92.7927 251.566C93.1796 252.164 93.7242 252.557 94.4267 252.745Z" fill="#161D29"/>
<path d="M58.3332 266.633C58.4139 266.097 58.2803 265.63 57.9323 265.231C57.5853 264.828 57.0899 264.541 56.4459 264.368C55.9849 264.245 55.5665 264.211 55.1907 264.267C54.8158 264.319 54.5013 264.447 54.247 264.649C53.9974 264.849 53.83 265.108 53.7447 265.427C53.6731 265.694 53.6736 265.941 53.746 266.168C53.8221 266.396 53.945 266.604 54.1146 266.79C54.2888 266.974 54.4831 267.142 54.6974 267.294C54.9126 267.441 55.1227 267.572 55.3275 267.686L56.3487 268.265C56.6837 268.449 57.0196 268.667 57.3562 268.918C57.6929 269.169 57.9894 269.46 58.2456 269.791C58.5019 270.123 58.6803 270.496 58.7809 270.911C58.885 271.327 58.8695 271.788 58.7342 272.293C58.5636 272.929 58.2475 273.451 57.7858 273.856C57.3279 274.263 56.7496 274.526 56.0512 274.644C55.3564 274.764 54.5699 274.706 53.6918 274.471C52.8503 274.246 52.1579 273.917 51.6148 273.485C51.0717 273.053 50.692 272.546 50.4758 271.962C50.2606 271.375 50.2254 270.738 50.3701 270.052L52.0715 270.508C51.9956 270.922 52.0366 271.296 52.1946 271.629C52.3572 271.959 52.602 272.238 52.9289 272.467C53.2604 272.693 53.6439 272.864 54.0793 272.981C54.5586 273.109 55.005 273.148 55.4184 273.098C55.8364 273.046 56.1896 272.913 56.4781 272.7C56.7675 272.483 56.9612 272.192 57.0592 271.826C57.1484 271.493 57.1263 271.195 56.9929 270.932C56.8632 270.67 56.656 270.426 56.3712 270.201C56.0902 269.977 55.7626 269.757 55.3886 269.543L54.1575 268.825C53.3231 268.339 52.7062 267.787 52.3068 267.171C51.911 266.555 51.8181 265.855 52.0279 265.072C52.2014 264.425 52.5285 263.907 53.0091 263.518C53.4898 263.129 54.0659 262.881 54.7375 262.775C55.4101 262.665 56.1233 262.711 56.877 262.913C57.638 263.117 58.2736 263.43 58.7838 263.853C59.2977 264.277 59.6601 264.768 59.8713 265.327C60.0834 265.882 60.1159 266.463 59.9687 267.071L58.3332 266.633ZM58.9496 279.068L62.0554 267.477L63.658 267.906L63.2918 269.273L63.429 269.31C63.5712 269.16 63.7628 268.993 64.0039 268.811C64.2449 268.628 64.5476 268.494 64.912 268.407C65.2774 268.317 65.7217 268.342 66.2449 268.482C66.9255 268.664 67.4867 268.999 67.9288 269.486C68.3708 269.973 68.6569 270.581 68.7871 271.31C68.9209 272.04 68.8657 272.861 68.6216 273.772C68.3775 274.683 68.0163 275.423 67.5382 275.993C67.0609 276.559 66.51 276.947 65.8854 277.156C65.2617 277.361 64.6096 277.373 63.9291 277.191C63.4168 277.053 63.0209 276.855 62.7414 276.596C62.4655 276.338 62.267 276.069 62.1458 275.789C62.0246 275.51 61.9386 275.267 61.8879 275.061L61.7891 275.035L60.5906 279.508L58.9496 279.068ZM62.5341 272.123C62.3753 272.715 62.322 273.258 62.3744 273.751C62.4268 274.243 62.5819 274.659 62.8399 274.999C63.0989 275.335 63.4644 275.566 63.9364 275.693C64.4266 275.824 64.8712 275.804 65.2701 275.632C65.67 275.457 66.0144 275.167 66.3033 274.762C66.5958 274.358 66.8176 273.874 66.9686 273.311C67.1176 272.755 67.1673 272.233 67.1176 271.745C67.0716 271.258 66.9164 270.842 66.6521 270.497C66.3914 270.152 66.0141 269.914 65.5201 269.782C65.0445 269.654 64.6092 269.669 64.2142 269.826C63.8229 269.984 63.4843 270.26 63.1983 270.654C62.9124 271.048 62.691 271.537 62.5341 272.123ZM69.3352 278.463L71.594 270.033L73.2349 270.472L70.9761 278.902L69.3352 278.463ZM72.7712 268.954C72.4858 268.878 72.2662 268.717 72.1123 268.472C71.963 268.224 71.9241 267.966 71.9957 267.699C72.0682 267.429 72.2306 267.225 72.4828 267.089C72.7397 266.95 73.0108 266.918 73.2962 266.995C73.5816 267.071 73.7989 267.233 73.9482 267.481C74.1021 267.726 74.1428 267.984 74.0702 268.255C73.9987 268.522 73.8345 268.725 73.5776 268.864C73.3254 269.001 73.0566 269.031 72.7712 268.954ZM76.1659 274.928L74.8248 279.934L73.1838 279.494L75.4426 271.064L77.0177 271.486L76.65 272.858L76.7543 272.886C77.0678 272.492 77.4676 272.214 77.9536 272.054C78.4432 271.895 79.0046 271.901 79.6375 272.07C80.212 272.224 80.6827 272.48 81.0497 272.837C81.4178 273.191 81.6574 273.635 81.7688 274.171C81.8801 274.707 81.8427 275.322 81.6564 276.017L80.2197 281.379L78.5787 280.939L79.9625 275.775C80.1262 275.164 80.095 274.644 79.8688 274.215C79.6437 273.782 79.253 273.491 78.6969 273.342C78.3163 273.24 77.9558 273.232 77.6154 273.317C77.2785 273.403 76.9815 273.582 76.7242 273.854C76.4716 274.124 76.2855 274.482 76.1659 274.928ZM90.0982 284.208C89.2676 283.986 88.5999 283.617 88.0949 283.101C87.5946 282.583 87.2684 281.956 87.1163 281.221C86.9688 280.484 87.0122 279.678 87.2465 278.803C87.4779 277.94 87.8428 277.222 88.3413 276.65C88.8434 276.078 89.4348 275.686 90.1156 275.472C90.8 275.259 91.5337 275.258 92.3167 275.468C92.7923 275.595 93.2323 275.797 93.6365 276.074C94.0407 276.351 94.3752 276.706 94.6399 277.137C94.9046 277.569 95.0673 278.081 95.1281 278.674C95.1899 279.263 95.1183 279.94 94.9134 280.705L94.7575 281.286L88.0564 279.491L88.3858 278.261L93.4789 279.626C93.5946 279.194 93.6092 278.789 93.5228 278.409C93.4374 278.025 93.2615 277.693 92.9951 277.414C92.7324 277.136 92.3889 276.94 91.9644 276.826C91.5034 276.703 91.0706 276.708 90.6658 276.843C90.2658 276.975 89.9239 277.197 89.6403 277.509C89.3612 277.819 89.1654 278.184 89.0526 278.605L88.7953 279.565C88.6443 280.129 88.6146 280.635 88.7063 281.083C88.8017 281.532 89.0007 281.909 89.3034 282.213C89.6071 282.514 89.9985 282.729 90.4778 282.857C90.7888 282.941 91.0842 282.973 91.3638 282.953C91.6444 282.931 91.9021 282.855 92.1367 282.725C92.3713 282.596 92.5734 282.413 92.7427 282.176L94.2209 282.872C93.9739 283.296 93.6434 283.637 93.2293 283.895C92.8198 284.149 92.3481 284.307 91.8141 284.368C91.2848 284.426 90.7128 284.373 90.0982 284.208ZM97.9844 286.339C97.4502 286.196 96.9937 285.968 96.6149 285.655C96.2371 285.338 95.973 284.955 95.8225 284.507C95.6756 284.06 95.6762 283.56 95.8243 283.008C95.9517 282.532 96.1481 282.165 96.4134 281.907C96.6787 281.648 96.9908 281.471 97.3499 281.375C97.7089 281.279 98.0928 281.237 98.5014 281.248C98.9101 281.26 99.3203 281.295 99.7318 281.355C100.252 281.431 100.675 281.494 100.999 281.541C101.325 281.585 101.571 281.583 101.737 281.533C101.903 281.483 102.013 281.36 102.066 281.162L102.076 281.124C102.204 280.645 102.168 280.237 101.968 279.901C101.772 279.566 101.408 279.327 100.878 279.185C100.325 279.037 99.8571 279.043 99.4731 279.203C99.0937 279.36 98.8039 279.571 98.6038 279.835L97.1557 279.07C97.4759 278.607 97.8538 278.265 98.2893 278.045C98.7295 277.821 99.1993 277.7 99.6985 277.681C100.199 277.658 100.703 277.715 101.212 277.851C101.548 277.941 101.894 278.077 102.25 278.259C102.609 278.437 102.926 278.675 103.2 278.972C103.477 279.27 103.669 279.641 103.778 280.086C103.887 280.527 103.859 281.055 103.694 281.669L102.194 287.267L100.592 286.838L100.901 285.685L100.835 285.668C100.672 285.852 100.457 286.017 100.19 286.165C99.9227 286.313 99.6045 286.411 99.2353 286.457C98.866 286.503 98.4491 286.464 97.9844 286.339ZM98.6941 285.118C99.1478 285.239 99.5596 285.253 99.9296 285.16C100.303 285.068 100.613 284.9 100.859 284.657C101.109 284.41 101.279 284.12 101.368 283.787L101.659 282.7C101.585 282.743 101.457 282.768 101.275 282.774C101.098 282.777 100.898 282.769 100.676 282.749C100.455 282.725 100.24 282.7 100.031 282.676C99.8226 282.648 99.6484 282.624 99.5081 282.606C99.179 282.561 98.87 282.551 98.5811 282.576C98.2958 282.601 98.0505 282.682 97.8452 282.82C97.6444 282.954 97.5049 283.168 97.4264 283.46C97.3176 283.866 97.3853 284.214 97.6294 284.503C97.8745 284.788 98.2294 284.993 98.6941 285.118ZM104.38 287.853L106.639 279.423L108.225 279.848L107.866 281.187L107.954 281.211C108.229 280.798 108.596 280.514 109.053 280.358C109.515 280.2 109.993 280.187 110.487 280.319C110.59 280.346 110.709 280.382 110.846 280.427C110.987 280.472 111.096 280.512 111.174 280.544L110.753 282.114C110.692 282.078 110.581 282.026 110.418 281.959C110.257 281.888 110.092 281.831 109.924 281.785C109.536 281.682 109.168 281.671 108.82 281.755C108.477 281.835 108.179 281.996 107.926 282.238C107.674 282.477 107.499 282.779 107.401 283.145L106.021 288.293L104.38 287.853ZM113.294 284.877L111.953 289.882L110.312 289.442L112.57 281.012L114.145 281.434L113.778 282.806L113.882 282.834C114.196 282.44 114.595 282.163 115.081 282.003C115.571 281.844 116.132 281.849 116.765 282.019C117.34 282.173 117.81 282.428 118.178 282.785C118.546 283.139 118.785 283.584 118.897 284.119C119.008 284.655 118.97 285.27 118.784 285.966L117.347 291.328L115.706 290.888L117.09 285.723C117.254 285.112 117.223 284.592 116.997 284.163C116.771 283.73 116.381 283.439 115.825 283.29C115.444 283.188 115.084 283.18 114.743 283.265C114.406 283.351 114.109 283.531 113.852 283.803C113.599 284.072 113.413 284.43 113.294 284.877ZM123.136 293.061C122.305 292.838 121.638 292.469 121.133 291.954C120.632 291.435 120.306 290.809 120.154 290.074C120.006 289.336 120.05 288.53 120.284 287.656C120.516 286.792 120.88 286.074 121.379 285.502C121.881 284.931 122.472 284.538 123.153 284.325C123.838 284.112 124.571 284.11 125.354 284.32C125.83 284.448 126.27 284.65 126.674 284.927C127.078 285.204 127.413 285.558 127.678 285.99C127.942 286.421 128.105 286.934 128.166 287.526C128.228 288.116 128.156 288.792 127.951 289.557L127.795 290.139L121.094 288.343L121.423 287.114L126.517 288.479C126.632 288.047 126.647 287.641 126.56 287.261C126.475 286.877 126.299 286.546 126.033 286.267C125.77 285.988 125.427 285.792 125.002 285.679C124.541 285.555 124.108 285.561 123.704 285.695C123.303 285.827 122.962 286.05 122.678 286.362C122.399 286.671 122.203 287.037 122.09 287.457L121.833 288.418C121.682 288.981 121.652 289.487 121.744 289.935C121.839 290.384 122.038 290.761 122.341 291.066C122.645 291.367 123.036 291.581 123.516 291.71C123.827 291.793 124.122 291.825 124.401 291.806C124.682 291.783 124.94 291.707 125.174 291.578C125.409 291.448 125.611 291.265 125.78 291.028L127.259 291.724C127.012 292.148 126.681 292.489 126.267 292.747C125.857 293.002 125.386 293.16 124.852 293.221C124.323 293.279 123.751 293.226 123.136 293.061ZM131.73 295.358C131.05 295.176 130.489 294.839 130.048 294.348C129.612 293.855 129.328 293.244 129.198 292.515C129.073 291.783 129.132 290.962 129.376 290.051C129.62 289.14 129.981 288.401 130.458 287.835C130.939 287.27 131.493 286.886 132.119 286.686C132.745 286.485 133.397 286.475 134.074 286.657C134.597 286.797 134.994 286.997 135.265 287.258C135.541 287.516 135.736 287.784 135.85 288.062C135.968 288.34 136.052 288.581 136.104 288.783L136.203 288.809L137.322 284.633L138.963 285.073L135.951 296.312L134.349 295.883L134.7 294.571L134.563 294.535C134.416 294.687 134.218 294.854 133.97 295.034C133.725 295.216 133.419 295.35 133.051 295.435C132.683 295.521 132.243 295.495 131.73 295.358ZM132.468 294.055C132.94 294.182 133.372 294.164 133.764 294.003C134.161 293.839 134.503 293.556 134.791 293.155C135.083 292.754 135.308 292.258 135.467 291.665C135.624 291.08 135.677 290.545 135.626 290.061C135.576 289.577 135.42 289.168 135.16 288.836C134.9 288.504 134.531 288.273 134.051 288.145C133.558 288.012 133.112 288.03 132.714 288.198C132.316 288.366 131.973 288.649 131.686 289.046C131.403 289.445 131.187 289.922 131.038 290.478C130.887 291.042 130.835 291.571 130.883 292.066C130.931 292.561 131.084 292.985 131.343 293.336C131.606 293.685 131.981 293.925 132.468 294.055Z" fill="#838894"/>
<rect x="216.111" y="208.569" width="139.5" height="119" rx="3.5" transform="rotate(15 216.111 208.569)" stroke="#DBDDEA"/>
<path d="M214.509 243.526L237.691 249.737L243.903 226.555L220.72 220.344L214.509 243.526Z" fill="#161D29"/>
<path d="M216.43 269.783L211.913 286.643L208.858 285.825L212.58 271.937L212.481 271.91L207.863 273.373L208.613 270.574L213.524 269.004L216.43 269.783ZM216.193 287.79L216.785 285.584L224.175 281.414C224.887 280.999 225.488 280.622 225.978 280.283C226.469 279.944 226.863 279.593 227.16 279.232C227.457 278.87 227.668 278.456 227.793 277.989C227.936 277.457 227.937 276.969 227.797 276.526C227.658 276.077 227.406 275.692 227.039 275.37C226.672 275.048 226.22 274.815 225.682 274.671C225.128 274.522 224.611 274.508 224.132 274.626C223.655 274.74 223.245 274.974 222.903 275.329C222.566 275.686 222.32 276.153 222.166 276.729L219.26 275.95C219.547 274.88 220.04 274.015 220.741 273.356C221.441 272.696 222.277 272.264 223.249 272.06C224.227 271.858 225.273 271.906 226.387 272.204C227.518 272.507 228.455 272.984 229.198 273.636C229.94 274.288 230.449 275.045 230.724 275.907C231.005 276.771 231.018 277.674 230.766 278.618C230.596 279.249 230.309 279.837 229.905 280.382C229.5 280.926 228.894 281.487 228.086 282.065C227.284 282.644 226.196 283.314 224.821 284.075L221.123 286.252L221.092 286.367L228.435 288.335L227.752 290.887L216.193 287.79ZM236.391 293.449C235.294 293.155 234.367 292.686 233.61 292.042C232.854 291.392 232.319 290.637 232.002 289.776C231.691 288.916 231.645 288.015 231.862 287.074L234.825 287.868C234.695 288.574 234.842 289.219 235.268 289.804C235.695 290.383 236.29 290.775 237.053 290.979C237.651 291.14 238.221 291.145 238.761 290.996C239.301 290.846 239.771 290.563 240.17 290.147C240.57 289.731 240.851 289.209 241.013 288.582C241.189 287.947 241.206 287.345 241.064 286.778C240.922 286.21 240.65 285.723 240.247 285.315C239.846 284.901 239.336 284.612 238.716 284.446C238.212 284.305 237.691 284.265 237.151 284.326C236.611 284.387 236.156 284.536 235.787 284.773L233.15 283.581L236.361 275.123L246.141 277.744L245.457 280.296L238.204 278.353L236.521 282.693L236.62 282.719C237.031 282.435 237.554 282.249 238.19 282.161C238.827 282.067 239.485 282.111 240.166 282.293C241.187 282.567 242.033 283.052 242.705 283.75C243.378 284.442 243.833 285.27 244.069 286.233C244.305 287.196 244.278 288.218 243.989 289.3C243.69 290.414 243.166 291.338 242.416 292.072C241.673 292.803 240.78 293.295 239.735 293.551C238.697 293.802 237.582 293.768 236.391 293.449ZM245.795 292.369L246.446 289.94L256.629 280.554L258.654 281.097L257.727 284.554L256.493 284.224L249.632 290.565L249.597 290.696L259.582 293.372L258.91 295.883L245.795 292.369ZM253 297.652L254.037 293.783L254.361 292.705L257.551 280.801L260.432 281.573L255.914 298.433L253 297.652Z" fill="#161D29"/>
<path d="M197.153 312.712L199.412 304.282L200.987 304.704L200.62 306.076L200.724 306.104C201.024 305.686 201.408 305.401 201.877 305.248C202.346 305.091 202.859 305.088 203.415 305.237C203.978 305.388 204.415 305.646 204.725 306.011C205.039 306.377 205.225 306.816 205.285 307.326L205.372 307.349C205.694 306.953 206.11 306.68 206.621 306.531C207.133 306.378 207.692 306.383 208.3 306.545C209.064 306.75 209.624 307.157 209.978 307.766C210.337 308.375 210.386 309.163 210.127 310.129L208.613 315.782L206.972 315.342L208.445 309.843C208.598 309.272 208.554 308.817 208.311 308.478C208.069 308.138 207.732 307.911 207.3 307.795C206.766 307.652 206.306 307.705 205.922 307.955C205.538 308.202 205.278 308.581 205.14 309.093L203.701 314.466L202.065 314.028L203.567 308.424C203.689 307.967 203.645 307.561 203.434 307.206C203.223 306.852 202.889 306.613 202.432 306.491C202.121 306.407 201.812 306.413 201.504 306.507C201.201 306.598 200.931 306.767 200.692 307.013C200.457 307.26 200.289 307.573 200.187 307.954L198.794 313.151L197.153 312.712ZM210.812 316.371L213.071 307.942L214.712 308.381L212.453 316.811L210.812 316.371ZM214.248 306.863C213.963 306.786 213.743 306.626 213.589 306.38C213.44 306.133 213.401 305.875 213.473 305.608C213.545 305.337 213.708 305.134 213.96 304.997C214.217 304.858 214.488 304.827 214.773 304.904C215.059 304.98 215.276 305.142 215.425 305.39C215.579 305.635 215.62 305.893 215.547 306.164C215.476 306.431 215.311 306.634 215.055 306.773C214.802 306.909 214.534 306.939 214.248 306.863ZM217.643 312.837L216.302 317.842L214.661 317.403L216.92 308.973L218.495 309.395L218.127 310.767L218.231 310.795C218.545 310.4 218.945 310.123 219.431 309.963C219.92 309.804 220.482 309.81 221.115 309.979C221.689 310.133 222.16 310.389 222.527 310.746C222.895 311.099 223.134 311.544 223.246 312.08C223.357 312.615 223.32 313.231 223.133 313.926L221.697 319.288L220.056 318.848L221.439 313.684C221.603 313.073 221.572 312.553 221.346 312.123C221.121 311.691 220.73 311.4 220.174 311.251C219.793 311.149 219.433 311.14 219.092 311.226C218.756 311.312 218.458 311.491 218.201 311.763C217.949 312.033 217.763 312.391 217.643 312.837ZM230.174 317.812L231.496 312.879L233.143 313.32L230.884 321.75L229.27 321.317L229.662 319.857L229.574 319.834C229.259 320.232 228.848 320.524 228.339 320.709C227.835 320.892 227.267 320.898 226.634 320.729C226.093 320.583 225.645 320.336 225.292 319.987C224.943 319.634 224.713 319.19 224.602 318.655C224.494 318.12 224.533 317.505 224.719 316.81L226.156 311.448L227.797 311.887L226.413 317.052C226.259 317.626 226.296 318.126 226.523 318.552C226.75 318.977 227.118 319.258 227.627 319.395C227.934 319.477 228.26 319.482 228.605 319.41C228.954 319.338 229.27 319.174 229.555 318.917C229.843 318.661 230.049 318.293 230.174 317.812ZM239.283 314.965L238.93 316.282L234.325 315.048L234.678 313.731L239.283 314.965ZM236.454 312.042L238.095 312.482L235.958 320.456C235.873 320.775 235.856 321.027 235.908 321.214C235.961 321.396 236.055 321.537 236.189 321.636C236.328 321.732 236.487 321.804 236.667 321.852C236.798 321.887 236.916 321.909 237.02 321.917C237.123 321.925 237.204 321.931 237.262 321.935L237.195 323.37C237.09 323.381 236.945 323.382 236.76 323.371C236.573 323.364 236.348 323.327 236.083 323.26C235.65 323.152 235.268 322.967 234.938 322.706C234.608 322.445 234.373 322.116 234.232 321.717C234.092 321.319 234.09 320.866 234.226 320.357L236.454 312.042ZM242.336 325.001C241.506 324.778 240.838 324.409 240.333 323.893C239.833 323.375 239.506 322.748 239.354 322.013C239.207 321.276 239.25 320.47 239.485 319.595C239.716 318.732 240.081 318.014 240.579 317.442C241.081 316.87 241.673 316.478 242.354 316.264C243.038 316.052 243.772 316.05 244.555 316.26C245.03 316.387 245.47 316.59 245.874 316.866C246.279 317.143 246.613 317.498 246.878 317.929C247.143 318.361 247.305 318.873 247.366 319.466C247.428 320.055 247.356 320.732 247.151 321.497L246.996 322.079L240.294 320.283L240.624 319.054L245.717 320.418C245.833 319.987 245.847 319.581 245.761 319.201C245.675 318.817 245.499 318.486 245.233 318.206C244.97 317.928 244.627 317.732 244.202 317.618C243.741 317.495 243.309 317.5 242.904 317.635C242.504 317.767 242.162 317.989 241.878 318.302C241.599 318.611 241.403 318.976 241.291 319.397L241.033 320.357C240.882 320.921 240.853 321.427 240.944 321.875C241.04 322.324 241.239 322.701 241.541 323.005C241.845 323.306 242.237 323.521 242.716 323.649C243.027 323.733 243.322 323.765 243.602 323.746C243.882 323.723 244.14 323.647 244.375 323.517C244.609 323.388 244.811 323.205 244.981 322.968L246.459 323.664C246.212 324.088 245.881 324.429 245.467 324.687C245.058 324.942 244.586 325.1 244.052 325.16C243.523 325.219 242.951 325.165 242.336 325.001ZM255.843 321.608L254.286 321.473C254.274 321.266 254.224 321.059 254.135 320.85C254.049 320.643 253.908 320.454 253.71 320.284C253.513 320.113 253.244 319.982 252.904 319.891C252.439 319.767 252.023 319.767 251.656 319.892C251.29 320.014 251.064 320.237 250.977 320.563C250.901 320.845 250.945 321.099 251.107 321.327C251.27 321.555 251.568 321.786 252.004 322.02L253.26 322.687C253.988 323.074 254.492 323.505 254.773 323.98C255.053 324.455 255.114 324.991 254.954 325.587C254.818 326.092 254.551 326.503 254.153 326.82C253.759 327.134 253.272 327.333 252.693 327.417C252.117 327.502 251.489 327.453 250.809 327.271C249.865 327.018 249.148 326.61 248.66 326.048C248.172 325.482 247.961 324.808 248.025 324.025L249.676 324.209C249.664 324.648 249.783 325.016 250.034 325.31C250.285 325.601 250.658 325.813 251.152 325.945C251.69 326.089 252.15 326.093 252.531 325.956C252.914 325.815 253.149 325.582 253.236 325.257C253.307 324.993 253.268 324.745 253.118 324.513C252.972 324.282 252.71 324.067 252.332 323.867L250.989 323.172C250.251 322.782 249.745 322.341 249.473 321.848C249.205 321.357 249.151 320.811 249.312 320.211C249.445 319.713 249.701 319.315 250.079 319.017C250.457 318.718 250.919 318.53 251.466 318.453C252.013 318.372 252.603 318.416 253.236 318.586C254.147 318.83 254.811 319.22 255.228 319.755C255.647 320.287 255.852 320.905 255.843 321.608ZM260.195 329.604L262.454 321.174L264.095 321.613L261.836 330.043L260.195 329.604ZM263.631 320.095C263.346 320.019 263.126 319.858 262.972 319.613C262.823 319.365 262.784 319.107 262.856 318.84C262.928 318.569 263.091 318.366 263.343 318.23C263.6 318.09 263.871 318.059 264.156 318.136C264.442 318.212 264.659 318.374 264.808 318.622C264.962 318.867 265.003 319.125 264.93 319.396C264.859 319.663 264.694 319.866 264.438 320.005C264.185 320.142 263.917 320.171 263.631 320.095ZM267.026 326.069L265.685 331.074L264.044 330.635L266.303 322.205L267.878 322.627L267.51 323.999L267.614 324.027C267.928 323.632 268.328 323.355 268.814 323.195C269.303 323.036 269.865 323.042 270.497 323.211C271.072 323.365 271.543 323.621 271.91 323.978C272.278 324.331 272.517 324.776 272.629 325.312C272.74 325.847 272.703 326.463 272.516 327.158L271.08 332.52L269.439 332.08L270.822 326.916C270.986 326.305 270.955 325.785 270.729 325.356C270.504 324.923 270.113 324.632 269.557 324.483C269.176 324.381 268.816 324.372 268.475 324.458C268.138 324.544 267.841 324.723 267.584 324.995C267.332 325.265 267.145 325.623 267.026 326.069ZM279.774 335.05C279.24 334.906 278.783 334.678 278.404 334.365C278.026 334.048 277.762 333.666 277.612 333.217C277.465 332.77 277.466 332.27 277.614 331.718C277.741 331.242 277.937 330.875 278.203 330.617C278.468 330.359 278.78 330.181 279.139 330.086C279.498 329.99 279.882 329.947 280.291 329.959C280.699 329.97 281.11 330.006 281.521 330.065C282.042 330.142 282.464 330.204 282.789 330.252C283.114 330.296 283.36 330.293 283.526 330.243C283.692 330.194 283.802 330.07 283.855 329.873L283.865 329.834C283.994 329.355 283.958 328.947 283.758 328.611C283.561 328.276 283.198 328.038 282.667 327.896C282.115 327.748 281.646 327.753 281.262 327.913C280.883 328.07 280.593 328.281 280.393 328.545L278.945 327.781C279.265 327.317 279.643 326.976 280.079 326.755C280.519 326.532 280.989 326.411 281.488 326.391C281.988 326.369 282.492 326.425 283.001 326.562C283.338 326.652 283.684 326.788 284.039 326.969C284.399 327.148 284.715 327.386 284.989 327.682C285.266 327.98 285.459 328.351 285.567 328.796C285.676 329.237 285.648 329.765 285.484 330.38L283.984 335.978L282.381 335.548L282.69 334.396L282.624 334.378C282.461 334.562 282.246 334.728 281.979 334.876C281.712 335.024 281.394 335.121 281.025 335.167C280.655 335.213 280.238 335.174 279.774 335.05ZM280.483 333.828C280.937 333.95 281.349 333.964 281.719 333.871C282.093 333.779 282.402 333.611 282.648 333.367C282.898 333.12 283.068 332.83 283.158 332.498L283.449 331.411C283.374 331.454 283.246 331.478 283.064 331.484C282.887 331.488 282.687 331.479 282.465 331.459C282.244 331.435 282.029 331.411 281.82 331.386C281.612 331.358 281.438 331.335 281.297 331.317C280.968 331.272 280.659 331.261 280.37 331.286C280.085 331.312 279.84 331.393 279.634 331.53C279.434 331.664 279.294 331.878 279.216 332.171C279.107 332.577 279.175 332.924 279.419 333.213C279.664 333.499 280.019 333.704 280.483 333.828ZM285.322 339.725L288.428 328.133L290.031 328.563L289.665 329.929L289.802 329.966C289.944 329.816 290.136 329.65 290.377 329.467C290.618 329.285 290.92 329.15 291.285 329.064C291.65 328.973 292.095 328.998 292.618 329.138C293.298 329.321 293.86 329.655 294.302 330.142C294.744 330.63 295.03 331.238 295.16 331.967C295.294 332.697 295.239 333.517 294.994 334.428C294.75 335.339 294.389 336.08 293.911 336.649C293.434 337.216 292.883 337.603 292.258 337.812C291.635 338.018 290.982 338.029 290.302 337.847C289.79 337.71 289.394 337.512 289.114 337.252C288.838 336.994 288.64 336.725 288.519 336.446C288.397 336.166 288.311 335.924 288.261 335.718L288.162 335.691L286.963 340.164L285.322 339.725ZM288.907 332.779C288.748 333.372 288.695 333.915 288.747 334.407C288.8 334.899 288.955 335.316 289.213 335.655C289.472 335.991 289.837 336.223 290.309 336.349C290.799 336.48 291.244 336.46 291.643 336.289C292.043 336.114 292.387 335.824 292.676 335.419C292.969 335.015 293.19 334.531 293.341 333.967C293.49 333.411 293.54 332.889 293.49 332.402C293.444 331.915 293.289 331.499 293.025 331.153C292.764 330.809 292.387 330.571 291.893 330.438C291.417 330.311 290.982 330.326 290.587 330.482C290.196 330.64 289.857 330.916 289.571 331.31C289.285 331.704 289.064 332.194 288.907 332.779ZM294.861 342.28L297.967 330.689L299.569 331.119L299.203 332.485L299.34 332.522C299.483 332.372 299.674 332.206 299.915 332.023C300.156 331.841 300.459 331.706 300.823 331.619C301.189 331.529 301.633 331.554 302.156 331.694C302.837 331.877 303.398 332.211 303.84 332.698C304.282 333.185 304.568 333.793 304.698 334.522C304.832 335.252 304.777 336.073 304.533 336.984C304.289 337.895 303.928 338.635 303.449 339.205C302.972 339.772 302.421 340.159 301.797 340.368C301.173 340.574 300.521 340.585 299.84 340.403C299.328 340.266 298.932 340.067 298.653 339.808C298.377 339.55 298.178 339.281 298.057 339.002C297.936 338.722 297.85 338.479 297.799 338.274L297.7 338.247L296.502 342.72L294.861 342.28ZM298.445 335.335C298.287 335.928 298.233 336.47 298.286 336.963C298.338 337.455 298.493 337.871 298.751 338.211C299.01 338.547 299.376 338.778 299.848 338.905C300.338 339.036 300.783 339.016 301.181 338.845C301.581 338.669 301.926 338.379 302.215 337.974C302.507 337.57 302.729 337.087 302.88 336.523C303.029 335.967 303.079 335.445 303.029 334.957C302.983 334.471 302.828 334.054 302.563 333.709C302.303 333.365 301.925 333.126 301.431 332.994C300.956 332.867 300.521 332.881 300.126 333.038C299.734 333.196 299.396 333.472 299.11 333.866C298.824 334.26 298.602 334.75 298.445 335.335Z" fill="#838894"/>
</g>
<defs>
<filter id="filter0_d_11167_18475" x="0.755859" y="0" width="429.379" height="428.672" filterUnits="userSpaceOnUse" color-interpolation-filters="sRGB">
<feFlood flood-opacity="0" result="BackgroundImageFix"/>
<feColorMatrix in="SourceAlpha" type="matrix" values="0 0 0 0 0 0 0 0 0 0 0 0 0 0 0 0 0 0 127 0" result="hardAlpha"/>
<feOffset dx="12" dy="12"/>
<feComposite in2="hardAlpha" operator="out"/>
<feColorMatrix type="matrix" values="0 0 0 0 0.0392157 0 0 0 0 0.352941 0 0 0 0 0.447059 0 0 0 0.1 0"/>
<feBlend mode="normal" in2="BackgroundImageFix" result="effect1_dropShadow_11167_18475"/>
<feBlend mode="normal" in="SourceGraphic" in2="effect1_dropShadow_11167_18475" result="shape"/>
</filter>
</defs>
</svg>
